<?xml version="1.0" encoding="UTF-8"?>
<svg xmlns="http://www.w3.org/2000/svg" viewBox="0 0 1920 1004">
  <defs>
    <style>
      .cls-1 {
        fill: #535790;
      }

      .cls-2 {
        opacity: .05;
      }

      .cls-3 {
        fill: #f0f1f9;
      }
    </style>
  </defs>
  <g id="Layer_1" data-name="Layer 1">
    <rect class="cls-3" width="1920" height="1004"/>
    <g class="cls-2">
      <polygon class="cls-1" points="442.06 892.83 406.31 892.83 406.14 892.54 388.43 861.87 388.6 861.58 406.31 830.9 441.73 830.9 441.73 832.05 406.97 832.05 389.76 861.87 406.97 891.68 441.4 891.68 458.78 861.58 459.77 862.15 442.06 892.83"/>
      <polygon class="cls-1" points="441.73 832.05 406.31 832.05 406.14 831.76 388.43 801.09 388.6 800.8 406.31 770.12 442.06 770.12 442.23 770.41 459.77 800.8 458.78 801.38 441.4 771.27 406.97 771.27 389.76 801.09 406.97 830.9 441.73 830.9 441.73 832.05"/>
      <path class="cls-1" d="m336.79,953.61h-35.75l-.17-.29-17.71-30.68.17-.29,17.71-30.68h35.75l.17.29,17.71,30.68-.17.29-17.71,30.68Zm-35.09-1.15h34.43l17.21-29.82-17.21-29.82h-34.43l-17.21,29.82,17.21,29.82Z"/>
      <path class="cls-1" d="m336.79,892.83h-35.75l-.17-.29-17.71-30.67.17-.29,17.71-30.68h35.75l.17.29,17.71,30.68-.17.29-17.71,30.68Zm-35.09-1.15h34.43l17.21-29.81-17.21-29.82h-34.43l-17.21,29.82,17.21,29.81Z"/>
      <path class="cls-1" d="m599.97,801.66h-35.75l-.17-.29-17.71-30.68.17-.29,17.71-30.68h35.75l.17.29,17.71,30.68-.17.29-17.71,30.68Zm-35.09-1.15h34.43l17.21-29.82-17.21-29.82h-34.43l-17.21,29.82,17.21,29.82Z"/>
      <path class="cls-1" d="m389.42,801.66h-35.75l-.17-.29-17.71-30.68.17-.29,17.71-30.68h35.75l.17.29,17.71,30.68-.17.29-17.71,30.68Zm-35.09-1.15h34.43l17.21-29.82-17.21-29.82h-34.43l-17.21,29.82,17.21,29.82Z"/>
      <path class="cls-1" d="m389.42,740.88h-35.75l-.17-.29-17.71-30.67.17-.29,17.71-30.68h35.75l.17.29,17.71,30.68-.17.29-17.71,30.68Zm-35.09-1.15h34.43l17.21-29.81-17.21-29.82h-34.43l-17.21,29.82,17.21,29.81Z"/>
      <polygon class="cls-1" points="231.18 832.05 195.76 832.05 195.6 831.76 177.89 801.09 178.05 800.8 195.76 770.12 231.52 770.12 231.68 770.41 249.23 800.8 248.23 801.38 230.85 771.27 196.43 771.27 179.21 801.09 196.43 830.9 231.18 830.9 231.18 832.05"/>
      <path class="cls-1" d="m126.24,892.83h-35.75l-.17-.29-17.71-30.67.17-.29,17.71-30.68h35.75l.17.29,17.71,30.68-.17.29-17.71,30.68Zm-35.09-1.15h34.43l17.21-29.81-17.21-29.82h-34.43l-17.21,29.82,17.21,29.81Z"/>
      <path class="cls-1" d="m336.79,710.5h-35.75l-.17-.29-17.71-30.68.17-.29,17.71-30.68h35.75l.17.29,17.71,30.68-.17.29-17.71,30.68Zm-35.09-1.15h34.43l17.21-29.82-17.21-29.82h-34.43l-17.21,29.82,17.21,29.82Z"/>
      <path class="cls-1" d="m178.88,801.66h-35.75l-.17-.29-17.71-30.68.17-.29,17.71-30.68h35.75l.17.29,17.71,30.68-.17.29-17.71,30.68Zm-35.09-1.15h34.43l17.21-29.82-17.21-29.82h-34.43l-17.21,29.82,17.21,29.82Z"/>
      <polygon class="cls-1" points="126.24 649.72 90.82 649.72 90.82 648.57 125.58 648.57 142.79 618.75 125.58 588.94 91.15 588.94 73.77 619.04 72.78 618.47 90.49 587.79 126.24 587.79 126.41 588.08 144.12 618.75 143.95 619.04 126.24 649.72"/>
      <path class="cls-1" d="m73.61,740.88h-35.75l-.17-.29-17.71-30.67.17-.29,17.71-30.68h35.75l.17.29,17.71,30.68-.17.29-17.71,30.68Zm-35.09-1.15h34.43l17.21-29.81-17.21-29.82h-34.43l-17.21,29.82,17.21,29.81Z"/>
      <path class="cls-1" d="m178.88,680.11h-35.75l-.17-.29-17.71-30.68.17-.29,17.71-30.68h35.75l.17.29,17.71,30.68-.17.29-17.71,30.68Zm-35.09-1.15h34.43l17.21-29.82-17.21-29.82h-34.43l-17.21,29.82,17.21,29.82Z"/>
      <path class="cls-1" d="m126.24,588.94h-35.75l-.17-.29-17.71-30.68.17-.29,17.71-30.68h35.75l.17.29,17.71,30.67-.17.29-17.71,30.68Zm-35.09-1.15h34.43l17.21-29.82-17.21-29.81h-34.43l-17.21,29.81,17.21,29.82Z"/>
      <path class="cls-1" d="m73.61,619.33h-35.75l-.17-.29-17.71-30.68.17-.29,17.71-30.68h35.75l.17.29,17.71,30.68-.17.29-17.71,30.68Zm-35.09-1.15h34.43l17.21-29.82-17.21-29.82h-34.43l-17.21,29.82,17.21,29.82Z"/>
      <polygon class="cls-1" points="494.7 862.44 459.27 862.44 459.27 861.29 494.03 861.29 511.25 831.48 494.03 801.66 459.27 801.66 459.27 800.51 494.7 800.51 494.86 800.8 512.57 831.48 512.41 831.76 494.7 862.44"/>
      <path class="cls-1" d="m547.33,832.05h-35.75l-.17-.29-17.71-30.68.17-.29,17.71-30.68h35.75l.17.29,17.71,30.68-.17.29-17.71,30.68Zm-35.09-1.15h34.43l17.21-29.82-17.21-29.82h-34.43l-17.21,29.82,17.21,29.82Z"/>
      <path class="cls-1" d="m178.88,497.77h-35.75l-.17-.29-17.71-30.68,17.88-30.96h35.75l17.88,30.96-17.88,30.96Zm-35.09-1.15h34.43l17.21-29.82-17.21-29.82h-34.43l-17.21,29.82,17.21,29.82Z"/>
      <path class="cls-1" d="m231.52,953.61h-35.75l-.17-.29-17.71-30.68.17-.29,17.71-30.68h35.75l.17.29,17.71,30.68-.17.29-17.71,30.68Zm-35.09-1.15h34.43l17.21-29.82-17.21-29.82h-34.43l-17.21,29.82,17.21,29.82Z"/>
      <path class="cls-1" d="m284.15,923.22h-35.75l-.17-.29-17.71-30.68.17-.29,17.71-30.68h35.75l.17.29,17.71,30.67-.17.29-17.71,30.68Zm-35.09-1.15h34.43l17.21-29.82-17.21-29.81h-34.43l-17.21,29.81,17.21,29.82Z"/>
      <path class="cls-1" d="m442.06,953.61h-35.75l-.17-.29-17.71-30.68.17-.29,17.71-30.68h35.75l.17.29,17.71,30.68-.17.29-17.71,30.68Zm-35.09-1.15h34.43l17.21-29.82-17.21-29.82h-34.43l-17.21,29.82,17.21,29.82Z"/>
      <path class="cls-1" d="m494.7,923.22h-35.75l-.17-.29-17.71-30.68.17-.29,17.71-30.68h35.75l.17.29,17.71,30.67-.17.29-17.71,30.68Zm-35.09-1.15h34.43l17.21-29.82-17.21-29.81h-34.43l-17.21,29.81,17.21,29.82Z"/>
      <path class="cls-1" d="m126.24,953.61h-35.75l-.17-.29-17.71-30.68.17-.29,17.71-30.68h35.75l.17.29,17.71,30.68-.17.29-17.71,30.68Zm-35.09-1.15h34.43l17.21-29.82-17.21-29.82h-34.43l-17.21,29.82,17.21,29.82Z"/>
      <path class="cls-1" d="m178.88,862.44h-35.75l-.17-.29-17.71-30.68.17-.29,17.71-30.68h35.75l.17.29,17.71,30.68-.17.29-17.71,30.68Zm-35.09-1.15h34.43l17.21-29.82-17.21-29.82h-34.43l-17.21,29.82,17.21,29.82Z"/>
      <path class="cls-1" d="m73.61,923.22h-35.75l-.17-.29-17.71-30.68.17-.29,17.71-30.68h35.75l.17.29,17.71,30.67-.17.29-17.71,30.68Zm-35.09-1.15h34.43l17.21-29.82-17.21-29.81h-34.43l-17.21,29.81,17.21,29.82Z"/>
      <path class="cls-1" d="m231.52,588.94h-35.75l-.17-.29-17.71-30.68.17-.29,17.71-30.68h35.75l.17.29,17.71,30.67-.17.29-17.71,30.68Zm-35.09-1.15h34.43l17.21-29.82-17.21-29.81h-34.43l-17.21,29.81,17.21,29.82Z"/>
      <path class="cls-1" d="m178.88,558.55h-35.75l-.17-.29-17.71-30.67.17-.29,17.71-30.68h35.75l.17.29,17.71,30.68-.17.29-17.71,30.68Zm-35.09-1.15h34.43l17.21-29.81-17.21-29.82h-34.43l-17.21,29.82,17.21,29.81Z"/>
      <path class="cls-1" d="m126.24,771.27h-35.75l-.17-.29-17.71-30.68.17-.29,17.71-30.68h35.75l.17.29,17.71,30.67-.17.29-17.71,30.68Zm-35.09-1.15h34.43l17.21-29.82-17.21-29.81h-34.43l-17.21,29.81,17.21,29.82Z"/>
      <path class="cls-1" d="m547.33,710.5h-35.75l-.17-.29-17.71-30.68.17-.29,17.71-30.68h35.75l.17.29,17.71,30.68-.17.29-17.71,30.68Zm-35.09-1.15h34.43l17.21-29.82-17.21-29.82h-34.43l-17.21,29.82,17.21,29.82Z"/>
      <path class="cls-1" d="m494.7,740.88h-35.75l-.17-.29-17.71-30.67.17-.29,17.71-30.68h35.75l.17.29,17.71,30.68-.17.29-17.71,30.68Zm-35.09-1.15h34.43l17.21-29.81-17.21-29.82h-34.43l-17.21,29.82,17.21,29.81Z"/>
      <path class="cls-1" d="m442.06,710.5h-35.75l-.17-.29-17.71-30.68.17-.29,17.71-30.68h35.75l.17.29,17.71,30.68-.17.29-17.71,30.68Zm-35.09-1.15h34.43l17.21-29.82-17.21-29.82h-34.43l-17.21,29.82,17.21,29.82Z"/>
      <polygon class="cls-1" points="494.7 680.11 458.94 680.11 458.78 679.82 441.07 649.14 441.23 648.86 458.78 618.47 459.77 619.04 442.39 649.14 459.61 678.96 494.03 678.96 511.25 649.14 493.87 619.04 494.86 618.47 512.57 649.14 512.41 649.43 494.7 680.11"/>
      <path class="cls-1" d="m284.15,740.88h-35.75l-.17-.29-17.71-30.67.17-.29,17.71-30.68h35.75l.17.29,17.71,30.68-.17.29-17.71,30.68Zm-35.09-1.15h34.43l17.21-29.81-17.21-29.82h-34.43l-17.21,29.82,17.21,29.81Z"/>
      <path class="cls-1" d="m810.51,984h-35.75l-17.88-30.96.17-.29,17.71-30.68h35.75l17.88,30.96-.17.29-17.71,30.68Zm-35.09-1.15h34.43l17.21-29.82-17.21-29.82h-34.43l-17.21,29.82,17.21,29.82Z"/>
      <path class="cls-1" d="m968.42,953.61h-35.75l-17.88-30.96.17-.29,17.71-30.68h35.75l17.88,30.96-.17.29-17.71,30.68Zm-35.09-1.15h34.43l17.21-29.82-17.21-29.82h-34.43l-17.21,29.82,17.21,29.82Z"/>
      <path class="cls-1" d="m863.15,953.61h-35.75l-17.88-30.96.17-.29,17.71-30.68h35.75l17.88,30.96-.17.29-17.71,30.68Zm-35.09-1.15h34.43l17.21-29.82-17.21-29.82h-34.43l-17.21,29.82,17.21,29.82Z"/>
      <polygon class="cls-1" points="915.78 923.22 880.03 923.22 862.32 892.54 863.31 891.97 880.69 922.07 915.12 922.07 932.34 892.26 915.12 862.44 880.36 862.44 880.36 861.29 915.78 861.29 933.66 892.26 933.5 892.54 915.78 923.22"/>
      <path class="cls-1" d="m757.88,953.61h-35.75l-.17-.29-17.71-30.68.17-.29,17.71-30.68h35.75l17.88,30.96-.17.29-17.71,30.68Zm-35.09-1.15h34.43l17.21-29.82-17.21-29.82h-34.43l-17.21,29.82,17.21,29.82Z"/>
      <path class="cls-1" d="m231.52,771.27h-35.75l-.17-.29-17.71-30.68.17-.29,17.71-30.68h35.75l.17.29,17.71,30.67-.17.29-17.71,30.68Zm-35.09-1.15h34.43l17.21-29.82-17.21-29.81h-34.43l-17.21,29.81,17.21,29.82Z"/>
      <path class="cls-1" d="m178.88,740.88h-35.75l-.17-.29-17.71-30.67.17-.29,17.71-30.68h35.75l.17.29,17.71,30.68-.17.29-17.71,30.68Zm-35.09-1.15h34.43l17.21-29.81-17.21-29.82h-34.43l-17.21,29.82,17.21,29.81Z"/>
      <polygon class="cls-1" points="126.24 528.16 90.82 528.16 90.82 527.01 125.58 527.01 142.79 497.19 125.58 467.38 91.15 467.38 73.77 497.48 72.78 496.91 90.49 466.23 126.24 466.23 144.12 497.19 143.95 497.48 126.24 528.16"/>
      <polygon class="cls-1" points="336.79 649.72 301.03 649.72 300.87 649.43 283.32 619.04 284.32 618.47 301.7 648.57 336.13 648.57 353.34 618.75 335.96 588.65 336.95 588.08 354.67 618.75 354.5 619.04 336.79 649.72"/>
      <g>
        <path class="cls-1" d="m199.75,527.58c0,1.96-1.59,3.55-3.55,3.55s-3.55-1.59-3.55-3.55,1.59-3.55,3.55-3.55,3.55,1.59,3.55,3.55Z"/>
        <path class="cls-1" d="m199.65,649.14c0,1.96-1.59,3.55-3.55,3.55s-3.55-1.59-3.55-3.55,1.59-3.55,3.55-3.55,3.55,1.59,3.55,3.55Z"/>
        <path class="cls-1" d="m462.83,679.53c0,1.96-1.59,3.55-3.55,3.55s-3.55-1.59-3.55-3.55,1.59-3.55,3.55-3.55,3.55,1.59,3.55,3.55Z"/>
        <path class="cls-1" d="m462.83,618.75c0,1.96-1.59,3.55-3.55,3.55s-3.55-1.59-3.55-3.55,1.59-3.55,3.55-3.55,3.55,1.59,3.55,3.55Z"/>
        <path class="cls-1" d="m497.92,618.75c0,1.96-1.59,3.55-3.55,3.55s-3.55-1.59-3.55-3.55,1.59-3.55,3.55-3.55,3.55,1.59,3.55,3.55Z"/>
        <path class="cls-1" d="m462.83,801.09c0,1.96-1.59,3.55-3.55,3.55s-3.55-1.59-3.55-3.55,1.59-3.55,3.55-3.55,3.55,1.59,3.55,3.55Z"/>
        <path class="cls-1" d="m603.19,740.31c0,1.96-1.59,3.55-3.55,3.55s-3.55-1.59-3.55-3.55,1.59-3.55,3.55-3.55,3.55,1.59,3.55,3.55Z"/>
        <path class="cls-1" d="m357.56,922.65c0,1.96-1.59,3.55-3.55,3.55s-3.55-1.59-3.55-3.55,1.59-3.55,3.55-3.55,3.55,1.59,3.55,3.55Z"/>
        <path class="cls-1" d="m304.92,709.92c0,1.96-1.59,3.55-3.55,3.55s-3.55-1.59-3.55-3.55,1.59-3.55,3.55-3.55,3.55,1.59,3.55,3.55Z"/>
        <path class="cls-1" d="m340.01,588.36c0,1.96-1.59,3.55-3.55,3.55s-3.55-1.59-3.55-3.55,1.59-3.55,3.55-3.55,3.55,1.59,3.55,3.55Z"/>
        <path class="cls-1" d="m94.38,406.03c0,1.96-1.59,3.55-3.55,3.55s-3.55-1.59-3.55-3.55,1.59-3.55,3.55-3.55,3.55,1.59,3.55,3.55Z"/>
        <path class="cls-1" d="m76.83,497.19c0,1.96-1.59,3.55-3.55,3.55s-3.55-1.59-3.55-3.55,1.59-3.55,3.55-3.55,3.55,1.59,3.55,3.55Z"/>
        <path class="cls-1" d="m287.37,618.75c0,1.96-1.59,3.55-3.55,3.55s-3.55-1.59-3.55-3.55,1.59-3.55,3.55-3.55,3.55,1.59,3.55,3.55Z"/>
        <path class="cls-1" d="m94.38,649.14c0,1.96-1.59,3.55-3.55,3.55s-3.55-1.59-3.55-3.55,1.59-3.55,3.55-3.55,3.55,1.59,3.55,3.55Z"/>
        <circle class="cls-1" cx="441.73" cy="831.48" r="3.55"/>
        <path class="cls-1" d="m252.28,801.09c0,1.96-1.59,3.55-3.55,3.55s-3.55-1.59-3.55-3.55,1.59-3.55,3.55-3.55,3.55,1.59,3.55,3.55Z"/>
        <circle class="cls-1" cx="547" cy="892.26" r="3.55"/>
        <path class="cls-1" d="m813.73,922.65c0,1.96-1.59,3.55-3.55,3.55s-3.55-1.59-3.55-3.55,1.59-3.55,3.55-3.55,3.55,1.59,3.55,3.55Z"/>
        <path class="cls-1" d="m883.92,861.87c0,1.96-1.59,3.55-3.55,3.55s-3.55-1.59-3.55-3.55,1.59-3.55,3.55-3.55,3.55,1.59,3.55,3.55Z"/>
        <path class="cls-1" d="m234.74,831.48c0,1.96-1.59,3.55-3.55,3.55s-3.55-1.59-3.55-3.55,1.59-3.55,3.55-3.55,3.55,1.59,3.55,3.55Z"/>
        <path class="cls-1" d="m94.38,831.48c0,1.96-1.59,3.55-3.55,3.55s-3.55-1.59-3.55-3.55,1.59-3.55,3.55-3.55,3.55,1.59,3.55,3.55Z"/>
      </g>
      <path class="cls-1" d="m599.97,984h-35.75l-.17-.29-17.71-30.68.17-.29,17.71-30.68h35.75l.17.29,17.71,30.68-.17.29-17.71,30.68Zm-35.09-1.15h34.43l17.21-29.82-17.21-29.82h-34.43l-17.21,29.82,17.21,29.82Z"/>
      <path class="cls-1" d="m652.6,953.61h-35.75l-.17-.29-17.71-30.68.17-.29,17.71-30.68h35.75l.17.29,17.71,30.68-.17.29-17.71,30.68Zm-35.09-1.15h34.43l17.21-29.82-17.21-29.82h-34.43l-17.21,29.82,17.21,29.82Z"/>
      <path class="cls-1" d="m705.24,923.22h-35.75l-.17-.29-17.71-30.68.17-.29,17.71-30.68h35.75l.17.29,17.71,30.67-.17.29-17.71,30.68Zm-35.09-1.15h34.43l17.21-29.82-17.21-29.81h-34.43l-17.21,29.81,17.21,29.82Z"/>
      <path class="cls-1" d="m73.61,497.77h-35.75l-.17-.29-17.71-30.68,17.88-30.96h35.75l17.88,30.96-17.88,30.96Zm-35.09-1.15h34.43l17.21-29.82-17.21-29.82h-34.43l-17.21,29.82,17.21,29.82Z"/>
      <path class="cls-1" d="m73.61,436.99h-35.75l-17.88-30.96,17.88-30.96h35.75l17.88,30.96-17.88,30.96Zm-35.09-1.15h34.43l17.21-29.82-17.21-29.82h-34.43l-17.21,29.82,17.21,29.82Z"/>
      <path class="cls-1" d="m599.97,923.22h-35.75l-.17-.29-17.71-30.68.17-.29,17.71-30.68h35.75l.17.29,17.71,30.67-.17.29-17.71,30.68Zm-35.09-1.15h34.43l17.21-29.82-17.21-29.81h-34.43l-17.21,29.81,17.21,29.82Z"/>
      <polygon class="cls-1" points="547.5 892.54 546.5 891.97 563.88 861.87 546.67 832.05 512.24 832.05 495.03 861.87 512.41 891.97 511.41 892.54 493.7 861.87 493.87 861.58 511.58 830.9 547.33 830.9 547.5 831.19 565.21 861.87 565.04 862.15 547.5 892.54"/>
    </g>
  </g>
  <g id="Layer_2" data-name="Layer 2" class="cls-2">
    <g>
      <polygon class="cls-1" points="1830.81 630.03 1829.81 629.46 1847.19 599.35 1829.98 569.54 1795.22 569.54 1795.22 568.39 1830.64 568.39 1848.52 599.35 1848.35 599.64 1830.81 630.03"/>
      <path class="cls-1" d="m1883.28,599.93h-35.75l-17.88-30.96.17-.29,17.71-30.68h35.75l17.88,30.96-.17.29-17.71,30.68Zm-35.09-1.15h34.43l17.21-29.81-17.21-29.82h-34.43l-17.21,29.82,17.21,29.81Z"/>
      <path class="cls-1" d="m1725.37,508.76h-35.75l-.17-.29-17.71-30.68,17.88-30.96h35.75l.17.29,17.71,30.68-17.88,30.96Zm-35.09-1.15h34.43l17.21-29.82-17.21-29.82h-34.43l-17.21,29.82,17.21,29.82Z"/>
      <path class="cls-1" d="m1672.73,478.37h-35.75l-.17-.29-17.71-30.68,17.88-30.96h35.75l.17.29,17.71,30.68-17.88,30.96Zm-35.09-1.15h34.43l17.21-29.82-17.21-29.82h-34.43l-17.21,29.82,17.21,29.82Z"/>
      <path class="cls-1" d="m1830.64,569.54h-35.75l-17.88-30.96.17-.29,17.71-30.68h35.75l.17.29,17.71,30.68-.17.29-17.71,30.68Zm-35.09-1.15h34.43l17.21-29.82-17.21-29.82h-34.43l-17.21,29.82,17.21,29.82Z"/>
      <path class="cls-1" d="m1778.01,478.37h-35.75l-.17-.29-17.71-30.68,17.88-30.96h35.75l.17.29,17.71,30.68-17.88,30.96Zm-35.09-1.15h34.43l17.21-29.82-17.21-29.82h-34.43l-17.21,29.82,17.21,29.82Z"/>
      <path class="cls-1" d="m1883.28,539.15h-35.75l-17.88-30.96,17.88-30.96h35.75l.17.29,17.71,30.68-17.88,30.96Zm-35.09-1.15h34.43l17.21-29.82-17.21-29.82h-34.43l-17.21,29.82,17.21,29.82Z"/>
      <path class="cls-1" d="m1830.64,508.76h-35.75l-.17-.29-17.71-30.68,17.88-30.96h35.75l.17.29,17.71,30.68-17.88,30.96Zm-35.09-1.15h34.43l17.21-29.82-17.21-29.82h-34.43l-17.21,29.82,17.21,29.82Z"/>
      <path class="cls-1" d="m1883.28,356.81h-35.75l-.17-.29-17.71-30.68,17.88-30.96h35.75l.17.29,17.71,30.68-17.88,30.96Zm-35.09-1.15h34.43l17.21-29.82-17.21-29.82h-34.43l-17.21,29.82,17.21,29.82Z"/>
      <path class="cls-1" d="m1830.64,326.42h-35.75l-.17-.29-17.71-30.68,17.88-30.96h35.75l.17.29,17.71,30.68-17.88,30.96Zm-35.09-1.15h34.43l17.21-29.82-17.21-29.82h-34.43l-17.21,29.82,17.21,29.82Z"/>
      <path class="cls-1" d="m1883.28,296.04h-35.75l-.17-.29-17.71-30.68,17.88-30.96h35.75l.17.29,17.71,30.68-17.88,30.96Zm-35.09-1.15h34.43l17.21-29.82-17.21-29.82h-34.43l-17.21,29.82,17.21,29.82Z"/>
      <path class="cls-1" d="m1725.37,326.42h-35.75l-.17-.29-17.71-30.68,17.88-30.96h35.75l.17.29,17.71,30.68-17.88,30.96Zm-35.09-1.15h34.43l17.21-29.82-17.21-29.82h-34.43l-17.21,29.82,17.21,29.82Z"/>
      <path class="cls-1" d="m1725.37,265.65h-35.75l-.17-.29-17.71-30.68,17.88-30.96h35.75l.17.29,17.71,30.68-17.88,30.96Zm-35.09-1.15h34.43l17.21-29.82-17.21-29.82h-34.43l-17.21,29.82,17.21,29.82Z"/>
      <path class="cls-1" d="m1356.92,296.04h-35.75l-.17-.29-17.71-30.68,17.88-30.96h35.75l.17.29,17.71,30.68-17.88,30.96Zm-35.09-1.15h34.43l17.21-29.82-17.21-29.82h-34.43l-17.21,29.82,17.21,29.82Z"/>
      <polygon class="cls-1" points="1778.01 417.59 1742.25 417.59 1742.09 417.31 1724.54 386.92 1725.53 386.34 1742.92 416.44 1777.34 416.44 1794.56 386.63 1777.34 356.81 1742.25 356.81 1742.09 356.53 1724.54 326.14 1725.53 325.56 1742.92 355.67 1778.01 355.67 1778.17 355.95 1795.88 386.63 1778.01 417.59"/>
      <path class="cls-1" d="m1883.28,235.26h-35.75l-.17-.29-17.71-30.68,17.88-30.96h35.75l.17.29,17.71,30.68-17.88,30.96Zm-35.09-1.15h34.43l17.21-29.82-17.21-29.82h-34.43l-17.21,29.82,17.21,29.82Z"/>
      <path class="cls-1" d="m1883.28,174.48h-35.75l-.17-.29-17.71-30.68,17.88-30.96h35.75l.17.29,17.71,30.68-17.88,30.96Zm-35.09-1.15h34.43l17.21-29.82-17.21-29.82h-34.43l-17.21,29.82,17.21,29.82Z"/>
      <path class="cls-1" d="m1883.28,113.7h-35.75l-.17-.29-17.71-30.68,17.88-30.96h35.75l.17.29,17.71,30.68-17.88,30.96Zm-35.09-1.15h34.43l17.21-29.82-17.21-29.82h-34.43l-17.21,29.82,17.21,29.82Z"/>
      <path class="cls-1" d="m1830.64,204.87h-35.75l-.17-.29-17.71-30.68,17.88-30.96h35.75l.17.29,17.71,30.68-17.88,30.96Zm-35.09-1.15h34.43l17.21-29.82-17.21-29.82h-34.43l-17.21,29.82,17.21,29.82Z"/>
      <polygon class="cls-1" points="1778.01 174.48 1742.25 174.48 1742.09 174.19 1724.54 143.8 1725.53 143.23 1742.92 173.33 1777.34 173.33 1794.56 143.51 1777.18 113.41 1778.17 112.84 1795.88 143.51 1778.01 174.48"/>
      <path class="cls-1" d="m1830.64,144.09h-35.75l-.17-.29-17.71-30.68,17.88-30.96h35.75l.17.29,17.71,30.68-17.88,30.96Zm-35.09-1.15h34.43l17.21-29.82-17.21-29.82h-34.43l-17.21,29.82,17.21,29.82Z"/>
      <polygon class="cls-1" points="1742.09 113.41 1724.37 82.73 1742.25 51.77 1778.01 51.77 1778.17 52.06 1795.88 82.73 1778.17 113.41 1777.18 112.84 1794.56 82.73 1777.34 52.92 1742.92 52.92 1725.7 82.73 1743.08 112.84 1742.09 113.41"/>
      <polygon class="cls-1" points="1251.64 235.26 1215.89 235.26 1215.73 234.97 1198.18 204.58 1199.17 204.01 1216.55 234.11 1250.98 234.11 1268.2 204.29 1250.98 174.48 1216.22 174.48 1216.22 173.33 1251.64 173.33 1251.81 173.62 1269.52 204.29 1251.64 235.26"/>
      <path class="cls-1" d="m1672.73,235.26h-35.75l-.17-.29-17.71-30.68,17.88-30.96h35.75l.17.29,17.71,30.68-17.88,30.96Zm-35.09-1.15h34.43l17.21-29.82-17.21-29.82h-34.43l-17.21,29.82,17.21,29.82Z"/>
      <path class="cls-1" d="m1620.1,204.87h-35.75l-.17-.29-17.71-30.68,17.88-30.96h35.75l.17.29,17.71,30.68-17.88,30.96Zm-35.09-1.15h34.43l17.21-29.82-17.21-29.82h-34.43l-17.21,29.82,17.21,29.82Z"/>
      <path class="cls-1" d="m1725.37,204.87h-35.75l-.17-.29-17.71-30.68,17.88-30.96h35.75l.17.29,17.71,30.68-17.88,30.96Zm-35.09-1.15h34.43l17.21-29.82-17.21-29.82h-34.43l-17.21,29.82,17.21,29.82Z"/>
      <polygon class="cls-1" points="1725.04 144.09 1689.62 144.09 1689.45 143.8 1671.74 113.12 1689.62 82.16 1725.37 82.16 1725.53 82.45 1743.08 112.84 1742.09 113.41 1724.71 83.31 1690.28 83.31 1673.07 113.12 1690.28 142.94 1725.04 142.94 1725.04 144.09"/>
      <path class="cls-1" d="m1672.73,113.7h-35.75l-.17-.29-17.71-30.68,17.88-30.96h35.75l.17.29,17.71,30.68-17.88,30.96Zm-35.09-1.15h34.43l17.21-29.82-17.21-29.82h-34.43l-17.21,29.82,17.21,29.82Z"/>
      <path class="cls-1" d="m1251.64,113.7h-35.75l-.17-.29-17.71-30.68,17.88-30.96h35.75l.17.29,17.71,30.68-17.88,30.96Zm-35.09-1.15h34.43l17.21-29.82-17.21-29.82h-34.43l-17.21,29.82,17.21,29.82Z"/>
      <path class="cls-1" d="m1304.28,204.87h-35.75l-.17-.29-17.71-30.68,17.88-30.96h35.75l.17.29,17.71,30.68-17.88,30.96Zm-35.09-1.15h34.43l17.21-29.82-17.21-29.82h-34.43l-17.21,29.82,17.21,29.82Z"/>
      <polygon class="cls-1" points="1198.68 204.87 1163.26 204.87 1145.55 174.19 1146.54 173.62 1163.92 203.72 1198.68 203.72 1198.68 204.87"/>
      <rect class="cls-1" x="1206.88" y="141.16" width="1.15" height="35.09" transform="translate(82.41 624.98) rotate(-30)"/>
      <path class="cls-1" d="m1251.64,174.48h-35.75l-.17-.29-17.71-30.68,17.88-30.96h35.75l.17.29,17.71,30.68-17.88,30.96Zm-35.09-1.15h34.43l17.21-29.82-17.21-29.82h-34.43l-17.21,29.82,17.21,29.82Z"/>
      <path class="cls-1" d="m1199.01,83.31h-35.75l-17.88-30.96,17.88-30.96h35.75l.17.29,17.71,30.68-17.88,30.96Zm-35.09-1.15h34.43l17.21-29.82-17.21-29.82h-34.43l-17.21,29.82,17.21,29.82Z"/>
      <path class="cls-1" d="m1514.82,265.65h-35.75l-.17-.29-17.71-30.68,17.88-30.96h35.75l.17.29,17.71,30.68-17.88,30.96Zm-35.09-1.15h34.43l17.21-29.82-17.21-29.82h-34.43l-17.21,29.82,17.21,29.82Z"/>
      <path class="cls-1" d="m1514.82,204.87h-35.75l-.17-.29-17.71-30.68,17.88-30.96h35.75l.17.29,17.71,30.68-17.88,30.96Zm-35.09-1.15h34.43l17.21-29.82-17.21-29.82h-34.43l-17.21,29.82,17.21,29.82Z"/>
      <path class="cls-1" d="m1567.46,113.7h-35.75l-.17-.29-17.71-30.68,17.88-30.96h35.75l.17.29,17.71,30.68-17.88,30.96Zm-35.09-1.15h34.43l17.21-29.82-17.21-29.82h-34.43l-17.21,29.82,17.21,29.82Z"/>
      <path class="cls-1" d="m1462.19,235.26h-35.75l-.17-.29-17.71-30.68,17.88-30.96h35.75l.17.29,17.71,30.68-17.88,30.96Zm-35.09-1.15h34.43l17.21-29.82-17.21-29.82h-34.43l-17.21,29.82,17.21,29.82Z"/>
      <path class="cls-1" d="m1514.82,144.09h-35.75l-.17-.29-17.71-30.68,17.88-30.96h35.75l.17.29,17.71,30.68-17.88,30.96Zm-35.09-1.15h34.43l17.21-29.82-17.21-29.82h-34.43l-17.21,29.82,17.21,29.82Z"/>
      <path class="cls-1" d="m1462.19,113.7h-35.75l-.17-.29-17.71-30.68,17.88-30.96h35.75l.17.29,17.71,30.68-17.88,30.96Zm-35.09-1.15h34.43l17.21-29.82-17.21-29.82h-34.43l-17.21,29.82,17.21,29.82Z"/>
      <path class="cls-1" d="m935.83,235.26h-35.75l-17.88-30.96,17.88-30.96h35.75l17.88,30.96-17.88,30.96Zm-35.09-1.15h34.43l17.21-29.82-17.21-29.82h-34.43l-17.21,29.82,17.21,29.82Z"/>
      <polygon class="cls-1" points="988.63 204.58 987.64 204.01 1005.02 173.9 987.8 144.09 953.37 144.09 936.16 173.9 953.54 204.01 952.55 204.58 934.83 173.9 952.71 142.94 988.47 142.94 1006.34 173.9 988.63 204.58"/>
      <path class="cls-1" d="m935.83,174.48h-35.75l-17.88-30.96,17.88-30.96h35.75l17.88,30.96-17.88,30.96Zm-35.09-1.15h34.43l17.21-29.82-17.21-29.82h-34.43l-17.21,29.82,17.21,29.82Z"/>
      <path class="cls-1" d="m883.19,144.09h-35.75l-17.88-30.96,17.88-30.96h35.75l17.88,30.96-17.88,30.96Zm-35.09-1.15h34.43l17.21-29.82-17.21-29.82h-34.43l-17.21,29.82,17.21,29.82Z"/>
      <path class="cls-1" d="m1409.55,144.09h-35.75l-.17-.29-17.71-30.68,17.88-30.96h35.75l.17.29,17.71,30.68-17.88,30.96Zm-35.09-1.15h34.43l17.21-29.82-17.21-29.82h-34.43l-17.21,29.82,17.21,29.82Z"/>
      <path class="cls-1" d="m1356.92,113.7h-35.75l-.17-.29-17.71-30.68,17.88-30.96h35.75l.17.29,17.71,30.68-17.88,30.96Zm-35.09-1.15h34.43l17.21-29.82-17.21-29.82h-34.43l-17.21,29.82,17.21,29.82Z"/>
      <path class="cls-1" d="m1304.28,144.09h-35.75l-.17-.29-17.71-30.68,17.88-30.96h35.75l.17.29,17.71,30.68-17.88,30.96Zm-35.09-1.15h34.43l17.21-29.82-17.21-29.82h-34.43l-17.21,29.82,17.21,29.82Z"/>
      <path class="cls-1" d="m935.83,113.7h-35.75l-17.88-30.96,17.88-30.96h35.75l17.88,30.96-17.88,30.96Zm-35.09-1.15h34.43l17.21-29.82-17.21-29.82h-34.43l-17.21,29.82,17.21,29.82Z"/>
      <path class="cls-1" d="m988.47,83.31h-35.75l-17.88-30.96,17.88-30.96h35.75l17.88,30.96-17.88,30.96Zm-35.09-1.15h34.43l17.21-29.82-17.21-29.82h-34.43l-17.21,29.82,17.21,29.82Z"/>
      <polygon class="cls-1" points="830.56 174.48 794.8 174.48 777.09 143.8 778.09 143.23 795.47 173.33 829.89 173.33 847.11 143.51 829.89 113.7 795.13 113.7 795.13 112.55 830.56 112.55 848.43 143.51 830.56 174.48"/>
      <polygon class="cls-1" points="1672.4 356.81 1636.98 356.81 1636.82 356.53 1619.1 325.85 1636.98 294.89 1672.73 294.89 1672.9 295.17 1690.44 325.56 1689.45 326.14 1672.07 296.04 1637.64 296.04 1620.43 325.85 1637.64 355.67 1672.4 355.67 1672.4 356.81"/>
      <path class="cls-1" d="m1567.46,356.81h-35.75l-.17-.29-17.71-30.68,17.88-30.96h35.75l.17.29,17.71,30.68-17.88,30.96Zm-35.09-1.15h34.43l17.21-29.82-17.21-29.82h-34.43l-17.21,29.82,17.21,29.82Z"/>
      <path class="cls-1" d="m1620.1,326.42h-35.75l-.17-.29-17.71-30.68,17.88-30.96h35.75l.17.29,17.71,30.68-17.88,30.96Zm-35.09-1.15h34.43l17.21-29.82-17.21-29.82h-34.43l-17.21,29.82,17.21,29.82Z"/>
      <path class="cls-1" d="m1620.1,144.09h-35.75l-.17-.29-17.71-30.68,17.88-30.96h35.75l.17.29,17.71,30.68-17.88,30.96Zm-35.09-1.15h34.43l17.21-29.82-17.21-29.82h-34.43l-17.21,29.82,17.21,29.82Z"/>
      <path class="cls-1" d="m1672.73,296.04h-35.75l-.17-.29-17.71-30.68,17.88-30.96h35.75l.17.29,17.71,30.68-17.88,30.96Zm-35.09-1.15h34.43l17.21-29.82-17.21-29.82h-34.43l-17.21,29.82,17.21,29.82Z"/>
      <polygon class="cls-1" points="1409.55 326.42 1373.8 326.42 1373.63 326.14 1355.92 295.46 1373.8 264.5 1409.22 264.5 1409.22 265.65 1374.46 265.65 1357.25 295.46 1374.46 325.28 1408.89 325.28 1426.27 295.17 1427.26 295.75 1409.55 326.42"/>
      <path class="cls-1" d="m1199.01,265.65h-35.75l-17.88-30.96,17.88-30.96h35.75l.17.29,17.71,30.68-17.88,30.96Zm-35.09-1.15h34.43l17.21-29.82-17.21-29.82h-34.43l-17.21,29.82,17.21,29.82Z"/>
      <path class="cls-1" d="m1514.82,326.42h-35.75l-.17-.29-17.71-30.68,17.88-30.96h35.75l.17.29,17.71,30.68-17.88,30.96Zm-35.09-1.15h34.43l17.21-29.82-17.21-29.82h-34.43l-17.21,29.82,17.21,29.82Z"/>
      <path class="cls-1" d="m1041.1,113.7h-35.75l-17.88-30.96,17.88-30.96h35.75l17.88,30.96-17.88,30.96Zm-35.09-1.15h34.43l17.21-29.82-17.21-29.82h-34.43l-17.21,29.82,17.21,29.82Z"/>
      <polygon class="cls-1" points="1409.55 326.42 1373.8 326.42 1355.92 295.46 1373.8 264.5 1408.89 264.5 1426.27 234.39 1427.26 234.97 1409.55 265.65 1374.46 265.65 1357.25 295.46 1374.46 325.28 1408.89 325.28 1426.27 295.17 1427.26 295.75 1409.55 326.42"/>
      <g>
        <path class="cls-1" d="m956.6,204.29c0,1.96-1.59,3.55-3.55,3.55s-3.55-1.59-3.55-3.55,1.59-3.55,3.55-3.55,3.55,1.59,3.55,3.55Z"/>
        <path class="cls-1" d="m991.69,204.29c0,1.96-1.59,3.55-3.55,3.55s-3.55-1.59-3.55-3.55,1.59-3.55,3.55-3.55,3.55,1.59,3.55,3.55Z"/>
        <path class="cls-1" d="m991.69,82.74c0,1.96-1.59,3.55-3.55,3.55s-3.55-1.59-3.55-3.55,1.59-3.55,3.55-3.55,3.55,1.59,3.55,3.55Z"/>
        <path class="cls-1" d="m798.91,113.12c0,1.96-1.59,3.55-3.55,3.55s-3.55-1.59-3.55-3.55,1.59-3.55,3.55-3.55,3.55,1.59,3.55,3.55Z"/>
        <path class="cls-1" d="m781.14,143.51c0,1.96-1.59,3.55-3.55,3.55s-3.55-1.59-3.55-3.55,1.59-3.55,3.55-3.55,3.55,1.59,3.55,3.55Z"/>
        <path class="cls-1" d="m1325.05,113.12c0,1.96-1.59,3.55-3.55,3.55s-3.55-1.59-3.55-3.55,1.59-3.55,3.55-3.55,3.55,1.59,3.55,3.55Z"/>
        <path class="cls-1" d="m1465.41,173.9c0,1.96-1.59,3.55-3.55,3.55s-3.55-1.59-3.55-3.55,1.59-3.55,3.55-3.55,3.55,1.59,3.55,3.55Z"/>
        <path class="cls-1" d="m1430.32,295.46c0,1.96-1.59,3.55-3.55,3.55s-3.55-1.59-3.55-3.55,1.59-3.55,3.55-3.55,3.55,1.59,3.55,3.55Z"/>
        <path class="cls-1" d="m1149.6,173.9c0,1.96-1.59,3.55-3.55,3.55s-3.55-1.59-3.55-3.55,1.59-3.55,3.55-3.55,3.55,1.59,3.55,3.55Z"/>
        <path class="cls-1" d="m1588.23,204.29c0,1.96-1.59,3.55-3.55,3.55s-3.55-1.59-3.55-3.55,1.59-3.55,3.55-3.55,3.55,1.59,3.55,3.55Z"/>
        <path class="cls-1" d="m1833.86,265.07c0,1.96-1.59,3.55-3.55,3.55s-3.55-1.59-3.55-3.55,1.59-3.55,3.55-3.55,3.55,1.59,3.55,3.55Z"/>
        <path class="cls-1" d="m1675.96,356.24c0,1.96-1.59,3.55-3.55,3.55s-3.55-1.59-3.55-3.55,1.59-3.55,3.55-3.55,3.55,1.59,3.55,3.55Z"/>
        <path class="cls-1" d="m1798.77,143.51c0,1.96-1.59,3.55-3.55,3.55s-3.55-1.59-3.55-3.55,1.59-3.55,3.55-3.55,3.55,1.59,3.55,3.55Z"/>
        <path class="cls-1" d="m1746.14,113.12c0,1.96-1.59,3.55-3.55,3.55s-3.55-1.59-3.55-3.55,1.59-3.55,3.55-3.55,3.55,1.59,3.55,3.55Z"/>
        <path class="cls-1" d="m1623.32,82.74c0,1.96-1.59,3.55-3.55,3.55s-3.55-1.59-3.55-3.55,1.59-3.55,3.55-3.55,3.55,1.59,3.55,3.55Z"/>
        <path class="cls-1" d="m1728.59,386.63c0,1.96-1.59,3.55-3.55,3.55s-3.55-1.59-3.55-3.55,1.59-3.55,3.55-3.55,3.55,1.59,3.55,3.55Z"/>
        <path class="cls-1" d="m1728.59,508.19c0,1.96-1.59,3.55-3.55,3.55s-3.55-1.59-3.55-3.55,1.59-3.55,3.55-3.55,3.55,1.59,3.55,3.55Z"/>
        <path class="cls-1" d="m1798.77,568.97c0,1.96-1.59,3.55-3.55,3.55s-3.55-1.59-3.55-3.55,1.59-3.55,3.55-3.55,3.55,1.59,3.55,3.55Z"/>
        <path class="cls-1" d="m1833.86,629.74c0,1.96-1.59,3.55-3.55,3.55s-3.55-1.59-3.55-3.55,1.59-3.55,3.55-3.55,3.55,1.59,3.55,3.55Z"/>
      </g>
    </g>
  </g>
</svg>