<?xml version="1.0" encoding="UTF-8"?>
<svg id="Layer_1" data-name="Layer 1" xmlns="http://www.w3.org/2000/svg" viewBox="0 0 1920.05 1004">
  <defs>
    <style>
      .cls-1 {
        fill: #535790;
      }

      .cls-2 {
        opacity: .1;
      }

      .cls-3 {
        fill: #f0f1f9;
      }
    </style>
  </defs>
  <rect class="cls-3" x=".02" width="1920" height="1004"/>
  <g class="cls-2">
    <polygon class="cls-1" points="1849.7 608.65 1848.7 608.08 1866.08 577.97 1848.87 548.16 1814.11 548.16 1814.11 547.01 1849.53 547.01 1867.41 577.97 1867.24 578.26 1849.7 608.65"/>
    <path class="cls-1" d="m1902.17,578.55h-35.75l-17.88-30.96.17-.29,17.71-30.68h35.75l17.88,30.96-.17.29-17.71,30.68Zm-35.09-1.15h34.43l17.21-29.81-17.21-29.82h-34.43l-17.21,29.82,17.21,29.81Z"/>
    <path class="cls-1" d="m1744.26,487.38h-35.75l-.17-.29-17.71-30.68,17.88-30.96h35.75l.17.29,17.71,30.68-17.88,30.96Zm-35.09-1.15h34.43l17.21-29.82-17.21-29.82h-34.43l-17.21,29.82,17.21,29.82Z"/>
    <path class="cls-1" d="m1691.62,456.99h-35.75l-.17-.29-17.71-30.68,17.88-30.96h35.75l.17.29,17.71,30.68-17.88,30.96Zm-35.09-1.15h34.43l17.21-29.82-17.21-29.82h-34.43l-17.21,29.82,17.21,29.82Z"/>
    <path class="cls-1" d="m1849.53,548.16h-35.75l-17.88-30.96.17-.29,17.71-30.68h35.75l.17.29,17.71,30.68-.17.29-17.71,30.68Zm-35.09-1.15h34.43l17.21-29.82-17.21-29.82h-34.43l-17.21,29.82,17.21,29.82Z"/>
    <path class="cls-1" d="m1796.9,456.99h-35.75l-.17-.29-17.71-30.68,17.88-30.96h35.75l.17.29,17.71,30.68-17.88,30.96Zm-35.09-1.15h34.43l17.21-29.82-17.21-29.82h-34.43l-17.21,29.82,17.21,29.82Z"/>
    <path class="cls-1" d="m1902.17,517.77h-35.75l-17.88-30.96,17.88-30.96h35.75l.17.29,17.71,30.68-17.88,30.96Zm-35.09-1.15h34.43l17.21-29.82-17.21-29.82h-34.43l-17.21,29.82,17.21,29.82Z"/>
    <path class="cls-1" d="m1849.53,487.38h-35.75l-.17-.29-17.71-30.68,17.88-30.96h35.75l.17.29,17.71,30.68-17.88,30.96Zm-35.09-1.15h34.43l17.21-29.82-17.21-29.82h-34.43l-17.21,29.82,17.21,29.82Z"/>
    <polygon class="cls-1" points="422.08 912.83 386.33 912.83 386.16 912.54 368.45 881.87 368.62 881.58 386.33 850.9 421.75 850.9 421.75 852.05 386.99 852.05 369.78 881.87 386.99 911.68 421.42 911.68 438.8 881.58 439.79 882.15 422.08 912.83"/>
    <polygon class="cls-1" points="421.75 852.05 386.33 852.05 386.16 851.76 368.45 821.09 368.62 820.8 386.33 790.12 422.08 790.12 422.25 790.41 439.79 820.8 438.8 821.38 421.42 791.27 386.99 791.27 369.78 821.09 386.99 850.9 421.75 850.9 421.75 852.05"/>
    <path class="cls-1" d="m316.81,973.61h-35.75l-.17-.29-17.71-30.68.17-.29,17.71-30.68h35.75l.17.29,17.71,30.68-.17.29-17.71,30.68Zm-35.09-1.15h34.43l17.21-29.82-17.21-29.82h-34.43l-17.21,29.82,17.21,29.82Z"/>
    <path class="cls-1" d="m1902.17,335.43h-35.75l-.17-.29-17.71-30.68,17.88-30.96h35.75l.17.29,17.71,30.68-17.88,30.96Zm-35.09-1.15h34.43l17.21-29.82-17.21-29.82h-34.43l-17.21,29.82,17.21,29.82Z"/>
    <path class="cls-1" d="m1849.53,305.04h-35.75l-.17-.29-17.71-30.68,17.88-30.96h35.75l.17.29,17.71,30.68-17.88,30.96Zm-35.09-1.15h34.43l17.21-29.82-17.21-29.82h-34.43l-17.21,29.82,17.21,29.82Z"/>
    <path class="cls-1" d="m1902.17,274.65h-35.75l-.17-.29-17.71-30.68,17.88-30.96h35.75l.17.29,17.71,30.68-17.88,30.96Zm-35.09-1.15h34.43l17.21-29.82-17.21-29.82h-34.43l-17.21,29.82,17.21,29.82Z"/>
    <path class="cls-1" d="m1744.26,305.04h-35.75l-.17-.29-17.71-30.68,17.88-30.96h35.75l.17.29,17.71,30.68-17.88,30.96Zm-35.09-1.15h34.43l17.21-29.82-17.21-29.82h-34.43l-17.21,29.82,17.21,29.82Z"/>
    <path class="cls-1" d="m1744.26,244.26h-35.75l-.17-.29-17.71-30.68,17.88-30.96h35.75l.17.29,17.71,30.68-17.88,30.96Zm-35.09-1.15h34.43l17.21-29.82-17.21-29.82h-34.43l-17.21,29.82,17.21,29.82Z"/>
    <path class="cls-1" d="m316.81,912.83h-35.75l-.17-.29-17.71-30.67.17-.29,17.71-30.68h35.75l.17.29,17.71,30.68-.17.29-17.71,30.68Zm-35.09-1.15h34.43l17.21-29.81-17.21-29.82h-34.43l-17.21,29.82,17.21,29.81Z"/>
    <path class="cls-1" d="m579.99,821.66h-35.75l-.17-.29-17.71-30.68.17-.29,17.71-30.68h35.75l.17.29,17.71,30.68-.17.29-17.71,30.68Zm-35.09-1.15h34.43l17.21-29.82-17.21-29.82h-34.43l-17.21,29.82,17.21,29.82Z"/>
    <path class="cls-1" d="m369.45,821.66h-35.75l-.17-.29-17.71-30.68.17-.29,17.71-30.68h35.75l.17.29,17.71,30.68-.17.29-17.71,30.68Zm-35.09-1.15h34.43l17.21-29.82-17.21-29.82h-34.43l-17.21,29.82,17.21,29.82Z"/>
    <path class="cls-1" d="m369.45,760.88h-35.75l-.17-.29-17.71-30.67.17-.29,17.71-30.68h35.75l.17.29,17.71,30.68-.17.29-17.71,30.68Zm-35.09-1.15h34.43l17.21-29.81-17.21-29.82h-34.43l-17.21,29.82,17.21,29.81Z"/>
    <polygon class="cls-1" points="211.21 852.05 175.79 852.05 175.62 851.76 157.91 821.09 158.07 820.8 175.79 790.12 211.54 790.12 211.7 790.41 229.25 820.8 228.26 821.38 210.88 791.27 176.45 791.27 159.23 821.09 176.45 850.9 211.21 850.9 211.21 852.05"/>
    <path class="cls-1" d="m106.27,912.83h-35.75l-.17-.29-17.71-30.67.17-.29,17.71-30.68h35.75l.17.29,17.71,30.68-.17.29-17.71,30.68Zm-35.09-1.15h34.43l17.21-29.81-17.21-29.82h-34.43l-17.21,29.82,17.21,29.81Z"/>
    <path class="cls-1" d="m316.81,730.5h-35.75l-.17-.29-17.71-30.68.17-.29,17.71-30.68h35.75l.17.29,17.71,30.68-.17.29-17.71,30.68Zm-35.09-1.15h34.43l17.21-29.82-17.21-29.82h-34.43l-17.21,29.82,17.21,29.82Z"/>
    <path class="cls-1" d="m158.9,821.66h-35.75l-.17-.29-17.71-30.68.17-.29,17.71-30.68h35.75l.17.29,17.71,30.68-.17.29-17.71,30.68Zm-35.09-1.15h34.43l17.21-29.82-17.21-29.82h-34.43l-17.21,29.82,17.21,29.82Z"/>
    <polygon class="cls-1" points="106.27 669.72 70.84 669.72 70.84 668.57 105.6 668.57 122.82 638.75 105.6 608.94 71.18 608.94 53.8 639.04 52.8 638.47 70.51 607.79 106.27 607.79 106.43 608.08 124.14 638.75 123.98 639.04 106.27 669.72"/>
    <path class="cls-1" d="m53.63,760.88H17.88l-.17-.29-17.71-30.67.17-.29,17.71-30.68h35.75l.17.29,17.71,30.68-.17.29-17.71,30.68Zm-35.09-1.15h34.43l17.21-29.81-17.21-29.82H18.54l-17.21,29.82,17.21,29.81Z"/>
    <path class="cls-1" d="m158.9,700.11h-35.75l-.17-.29-17.71-30.68.17-.29,17.71-30.68h35.75l.17.29,17.71,30.68-.17.29-17.71,30.68Zm-35.09-1.15h34.43l17.21-29.82-17.21-29.82h-34.43l-17.21,29.82,17.21,29.82Z"/>
    <path class="cls-1" d="m1375.81,274.65h-35.75l-.17-.29-17.71-30.68,17.88-30.96h35.75l.17.29,17.71,30.68-17.88,30.96Zm-35.09-1.15h34.43l17.21-29.82-17.21-29.82h-34.43l-17.21,29.82,17.21,29.82Z"/>
    <polygon class="cls-1" points="1796.9 396.21 1761.14 396.21 1760.98 395.92 1743.43 365.53 1744.42 364.96 1761.81 395.06 1796.23 395.06 1813.45 365.25 1796.23 335.43 1761.14 335.43 1760.98 335.14 1743.43 304.76 1744.42 304.18 1761.81 334.28 1796.9 334.28 1797.06 334.57 1814.77 365.25 1796.9 396.21"/>
    <path class="cls-1" d="m1902.17,213.87h-35.75l-.17-.29-17.71-30.68,17.88-30.96h35.75l.17.29,17.71,30.68-17.88,30.96Zm-35.09-1.15h34.43l17.21-29.82-17.21-29.82h-34.43l-17.21,29.82,17.21,29.82Z"/>
    <path class="cls-1" d="m1902.17,153.09h-35.75l-.17-.29-17.71-30.68,17.88-30.96h35.75l.17.29,17.71,30.68-17.88,30.96Zm-35.09-1.15h34.43l17.21-29.82-17.21-29.82h-34.43l-17.21,29.82,17.21,29.82Z"/>
    <path class="cls-1" d="m1902.17,92.32h-35.75l-.17-.29-17.71-30.68,17.88-30.96h35.75l.17.29,17.71,30.68-17.88,30.96Zm-35.09-1.15h34.43l17.21-29.82-17.21-29.82h-34.43l-17.21,29.82,17.21,29.82Z"/>
    <path class="cls-1" d="m1849.53,183.48h-35.75l-.17-.29-17.71-30.68,17.88-30.96h35.75l.17.29,17.71,30.68-17.88,30.96Zm-35.09-1.15h34.43l17.21-29.82-17.21-29.82h-34.43l-17.21,29.82,17.21,29.82Z"/>
    <polygon class="cls-1" points="1796.9 153.09 1761.14 153.09 1760.98 152.81 1743.43 122.42 1744.42 121.84 1761.81 151.95 1796.23 151.95 1813.45 122.13 1796.07 92.03 1797.06 91.45 1814.77 122.13 1796.9 153.09"/>
    <path class="cls-1" d="m1849.53,122.7h-35.75l-.17-.29-17.71-30.68,17.88-30.96h35.75l.17.29,17.71,30.68-17.88,30.96Zm-35.09-1.15h34.43l17.21-29.82-17.21-29.82h-34.43l-17.21,29.82,17.21,29.82Z"/>
    <polygon class="cls-1" points="1760.98 92.03 1743.27 61.35 1761.14 30.39 1796.9 30.39 1797.06 30.68 1814.77 61.35 1797.06 92.03 1796.07 91.45 1813.45 61.35 1796.23 31.54 1761.81 31.54 1744.59 61.35 1761.97 91.45 1760.98 92.03"/>
    <polygon class="cls-1" points="1270.53 213.87 1234.78 213.87 1234.62 213.59 1217.07 183.2 1218.07 182.62 1235.44 212.73 1269.87 212.73 1287.09 182.91 1269.87 153.09 1235.11 153.09 1235.11 151.95 1270.53 151.95 1270.7 152.23 1288.41 182.91 1270.53 213.87"/>
    <path class="cls-1" d="m1691.62,213.87h-35.75l-.17-.29-17.71-30.68,17.88-30.96h35.75l.17.29,17.71,30.68-17.88,30.96Zm-35.09-1.15h34.43l17.21-29.82-17.21-29.82h-34.43l-17.21,29.82,17.21,29.82Z"/>
    <path class="cls-1" d="m1638.99,183.48h-35.75l-.17-.29-17.71-30.68,17.88-30.96h35.75l.17.29,17.71,30.68-17.88,30.96Zm-35.09-1.15h34.43l17.21-29.82-17.21-29.82h-34.43l-17.21,29.82,17.21,29.82Z"/>
    <path class="cls-1" d="m1744.26,183.48h-35.75l-.17-.29-17.71-30.68,17.88-30.96h35.75l.17.29,17.71,30.68-17.88,30.96Zm-35.09-1.15h34.43l17.21-29.82-17.21-29.82h-34.43l-17.21,29.82,17.21,29.82Z"/>
    <polygon class="cls-1" points="1743.93 122.7 1708.51 122.7 1708.34 122.42 1690.63 91.74 1708.51 60.78 1744.26 60.78 1744.42 61.07 1761.97 91.45 1760.98 92.03 1743.6 61.93 1709.17 61.93 1691.96 91.74 1709.17 121.56 1743.93 121.56 1743.93 122.7"/>
    <path class="cls-1" d="m1691.62,92.32h-35.75l-.17-.29-17.71-30.68,17.88-30.96h35.75l.17.29,17.71,30.68-17.88,30.96Zm-35.09-1.15h34.43l17.21-29.82-17.21-29.82h-34.43l-17.21,29.82,17.21,29.82Z"/>
    <path class="cls-1" d="m1270.53,92.32h-35.75l-.17-.29-17.71-30.68,17.88-30.96h35.75l.17.29,17.71,30.68-17.88,30.96Zm-35.09-1.15h34.43l17.21-29.82-17.21-29.82h-34.43l-17.21,29.82,17.21,29.82Z"/>
    <path class="cls-1" d="m1323.17,183.48h-35.75l-.17-.29-17.71-30.68,17.88-30.96h35.75l.17.29,17.71,30.68-17.88,30.96Zm-35.09-1.15h34.43l17.21-29.82-17.21-29.82h-34.43l-17.21,29.82,17.21,29.82Z"/>
    <polygon class="cls-1" points="1217.57 183.48 1182.15 183.48 1164.44 152.81 1165.43 152.23 1182.81 182.34 1217.57 182.34 1217.57 183.48"/>
    <rect class="cls-1" x="1225.77" y="119.78" width="1.15" height="35.09" transform="translate(95.63 631.56) rotate(-30)"/>
    <path class="cls-1" d="m1270.53,153.09h-35.75l-.17-.29-17.71-30.68,17.88-30.96h35.75l.17.29,17.71,30.68-17.88,30.96Zm-35.09-1.15h34.43l17.21-29.82-17.21-29.82h-34.43l-17.21,29.82,17.21,29.82Z"/>
    <path class="cls-1" d="m1217.9,61.93h-35.75l-17.88-30.96,17.88-30.96h35.75l.17.29,17.71,30.68-17.88,30.96Zm-35.09-1.15h34.43l17.21-29.82-17.21-29.82h-34.43l-17.21,29.82,17.21,29.82Z"/>
    <path class="cls-1" d="m1533.72,244.26h-35.75l-.17-.29-17.71-30.68,17.88-30.96h35.75l.17.29,17.71,30.68-17.88,30.96Zm-35.09-1.15h34.43l17.21-29.82-17.21-29.82h-34.43l-17.21,29.82,17.21,29.82Z"/>
    <path class="cls-1" d="m1533.72,183.48h-35.75l-.17-.29-17.71-30.68,17.88-30.96h35.75l.17.29,17.71,30.68-17.88,30.96Zm-35.09-1.15h34.43l17.21-29.82-17.21-29.82h-34.43l-17.21,29.82,17.21,29.82Z"/>
    <path class="cls-1" d="m1586.35,92.32h-35.75l-.17-.29-17.71-30.68,17.88-30.96h35.75l.17.29,17.71,30.68-17.88,30.96Zm-35.09-1.15h34.43l17.21-29.82-17.21-29.82h-34.43l-17.21,29.82,17.21,29.82Z"/>
    <path class="cls-1" d="m1481.08,213.87h-35.75l-.17-.29-17.71-30.68,17.88-30.96h35.75l.17.29,17.71,30.68-17.88,30.96Zm-35.09-1.15h34.43l17.21-29.82-17.21-29.82h-34.43l-17.21,29.82,17.21,29.82Z"/>
    <path class="cls-1" d="m1533.72,122.7h-35.75l-.17-.29-17.71-30.68,17.88-30.96h35.75l.17.29,17.71,30.68-17.88,30.96Zm-35.09-1.15h34.43l17.21-29.82-17.21-29.82h-34.43l-17.21,29.82,17.21,29.82Z"/>
    <path class="cls-1" d="m1481.08,92.32h-35.75l-.17-.29-17.71-30.68,17.88-30.96h35.75l.17.29,17.71,30.68-17.88,30.96Zm-35.09-1.15h34.43l17.21-29.82-17.21-29.82h-34.43l-17.21,29.82,17.21,29.82Z"/>
    <path class="cls-1" d="m954.72,213.87h-35.75l-17.88-30.96,17.88-30.96h35.75l17.88,30.96-17.88,30.96Zm-35.09-1.15h34.43l17.21-29.82-17.21-29.82h-34.43l-17.21,29.82,17.21,29.82Z"/>
    <polygon class="cls-1" points="1007.52 183.2 1006.53 182.62 1023.91 152.52 1006.69 122.7 972.26 122.7 955.05 152.52 972.43 182.62 971.44 183.2 953.72 152.52 971.6 121.56 1007.36 121.56 1025.23 152.52 1007.52 183.2"/>
    <path class="cls-1" d="m954.72,153.09h-35.75l-17.88-30.96,17.88-30.96h35.75l17.88,30.96-17.88,30.96Zm-35.09-1.15h34.43l17.21-29.82-17.21-29.82h-34.43l-17.21,29.82,17.21,29.82Z"/>
    <path class="cls-1" d="m902.08,122.7h-35.75l-17.88-30.96,17.88-30.96h35.75l17.88,30.96-17.88,30.96Zm-35.09-1.15h34.43l17.21-29.82-17.21-29.82h-34.43l-17.21,29.82,17.21,29.82Z"/>
    <path class="cls-1" d="m1428.44,122.7h-35.75l-.17-.29-17.71-30.68,17.88-30.96h35.75l.17.29,17.71,30.68-17.88,30.96Zm-35.09-1.15h34.43l17.21-29.82-17.21-29.82h-34.43l-17.21,29.82,17.21,29.82Z"/>
    <path class="cls-1" d="m1375.81,92.32h-35.75l-.17-.29-17.71-30.68,17.88-30.96h35.75l.17.29,17.71,30.68-17.88,30.96Zm-35.09-1.15h34.43l17.21-29.82-17.21-29.82h-34.43l-17.21,29.82,17.21,29.82Z"/>
    <path class="cls-1" d="m1323.17,122.7h-35.75l-.17-.29-17.71-30.68,17.88-30.96h35.75l.17.29,17.71,30.68-17.88,30.96Zm-35.09-1.15h34.43l17.21-29.82-17.21-29.82h-34.43l-17.21,29.82,17.21,29.82Z"/>
    <path class="cls-1" d="m954.72,92.32h-35.75l-17.88-30.96,17.88-30.96h35.75l17.88,30.96-17.88,30.96Zm-35.09-1.15h34.43l17.21-29.82-17.21-29.82h-34.43l-17.21,29.82,17.21,29.82Z"/>
    <path class="cls-1" d="m1007.36,61.93h-35.75l-17.88-30.96,17.88-30.96h35.75l17.88,30.96-17.88,30.96Zm-35.09-1.15h34.43l17.21-29.82-17.21-29.82h-34.43l-17.21,29.82,17.21,29.82Z"/>
    <polygon class="cls-1" points="849.45 153.09 813.69 153.09 795.98 122.42 796.98 121.84 814.36 151.95 848.78 151.95 866 122.13 848.78 92.32 814.03 92.32 814.03 91.17 849.45 91.17 867.32 122.13 849.45 153.09"/>
    <polygon class="cls-1" points="1691.29 335.43 1655.87 335.43 1655.71 335.14 1637.99 304.47 1655.87 273.51 1691.62 273.51 1691.79 273.79 1709.33 304.18 1708.34 304.76 1690.96 274.65 1656.53 274.65 1639.32 304.47 1656.53 334.28 1691.29 334.28 1691.29 335.43"/>
    <path class="cls-1" d="m1586.35,335.43h-35.75l-.17-.29-17.71-30.68,17.88-30.96h35.75l.17.29,17.71,30.68-17.88,30.96Zm-35.09-1.15h34.43l17.21-29.82-17.21-29.82h-34.43l-17.21,29.82,17.21,29.82Z"/>
    <path class="cls-1" d="m1638.99,305.04h-35.75l-.17-.29-17.71-30.68,17.88-30.96h35.75l.17.29,17.71,30.68-17.88,30.96Zm-35.09-1.15h34.43l17.21-29.82-17.21-29.82h-34.43l-17.21,29.82,17.21,29.82Z"/>
    <path class="cls-1" d="m1638.99,122.7h-35.75l-.17-.29-17.71-30.68,17.88-30.96h35.75l.17.29,17.71,30.68-17.88,30.96Zm-35.09-1.15h34.43l17.21-29.82-17.21-29.82h-34.43l-17.21,29.82,17.21,29.82Z"/>
    <path class="cls-1" d="m1691.62,274.65h-35.75l-.17-.29-17.71-30.68,17.88-30.96h35.75l.17.29,17.71,30.68-17.88,30.96Zm-35.09-1.15h34.43l17.21-29.82-17.21-29.82h-34.43l-17.21,29.82,17.21,29.82Z"/>
    <polygon class="cls-1" points="1428.44 305.04 1392.69 305.04 1392.52 304.76 1374.81 274.08 1392.69 243.12 1428.11 243.12 1428.11 244.26 1393.35 244.26 1376.14 274.08 1393.35 303.89 1427.78 303.89 1445.16 273.79 1446.15 274.37 1428.44 305.04"/>
    <path class="cls-1" d="m106.27,608.94h-35.75l-.17-.29-17.71-30.68.17-.29,17.71-30.68h35.75l.17.29,17.71,30.67-.17.29-17.71,30.68Zm-35.09-1.15h34.43l17.21-29.82-17.21-29.81h-34.43l-17.21,29.81,17.21,29.82Z"/>
    <path class="cls-1" d="m53.63,639.33H17.88l-.17-.29-17.71-30.68.17-.29,17.71-30.68h35.75l.17.29,17.71,30.68-.17.29-17.71,30.68Zm-35.09-1.15h34.43l17.21-29.82-17.21-29.82H18.54l-17.21,29.82,17.21,29.82Z"/>
    <path class="cls-1" d="m1217.9,244.26h-35.75l-17.88-30.96,17.88-30.96h35.75l.17.29,17.71,30.68-17.88,30.96Zm-35.09-1.15h34.43l17.21-29.82-17.21-29.82h-34.43l-17.21,29.82,17.21,29.82Z"/>
    <polygon class="cls-1" points="474.72 882.44 439.3 882.44 439.3 881.29 474.06 881.29 491.27 851.48 474.06 821.66 439.3 821.66 439.3 820.51 474.72 820.51 474.88 820.8 492.6 851.48 492.43 851.76 474.72 882.44"/>
    <path class="cls-1" d="m527.36,852.05h-35.75l-.17-.29-17.71-30.68.17-.29,17.71-30.68h35.75l.17.29,17.71,30.68-.17.29-17.71,30.68Zm-35.09-1.15h34.43l17.21-29.82-17.21-29.82h-34.43l-17.21,29.82,17.21,29.82Z"/>
    <path class="cls-1" d="m158.9,517.77h-35.75l-.17-.29-17.71-30.68,17.88-30.96h35.75l17.88,30.96-17.88,30.96Zm-35.09-1.15h34.43l17.21-29.82-17.21-29.82h-34.43l-17.21,29.82,17.21,29.82Z"/>
    <path class="cls-1" d="m211.54,973.61h-35.75l-.17-.29-17.71-30.68.17-.29,17.71-30.68h35.75l.17.29,17.71,30.68-.17.29-17.71,30.68Zm-35.09-1.15h34.43l17.21-29.82-17.21-29.82h-34.43l-17.21,29.82,17.21,29.82Z"/>
    <path class="cls-1" d="m264.18,943.22h-35.75l-.17-.29-17.71-30.68.17-.29,17.71-30.68h35.75l.17.29,17.71,30.67-.17.29-17.71,30.68Zm-35.09-1.15h34.43l17.21-29.82-17.21-29.81h-34.43l-17.21,29.81,17.21,29.82Z"/>
    <path class="cls-1" d="m422.08,973.61h-35.75l-.17-.29-17.71-30.68.17-.29,17.71-30.68h35.75l.17.29,17.71,30.68-.17.29-17.71,30.68Zm-35.09-1.15h34.43l17.21-29.82-17.21-29.82h-34.43l-17.21,29.82,17.21,29.82Z"/>
    <path class="cls-1" d="m474.72,943.22h-35.75l-.17-.29-17.71-30.68.17-.29,17.71-30.68h35.75l.17.29,17.71,30.67-.17.29-17.71,30.68Zm-35.09-1.15h34.43l17.21-29.82-17.21-29.81h-34.43l-17.21,29.81,17.21,29.82Z"/>
    <path class="cls-1" d="m106.27,973.61h-35.75l-.17-.29-17.71-30.68.17-.29,17.71-30.68h35.75l.17.29,17.71,30.68-.17.29-17.71,30.68Zm-35.09-1.15h34.43l17.21-29.82-17.21-29.82h-34.43l-17.21,29.82,17.21,29.82Z"/>
    <path class="cls-1" d="m1533.72,305.04h-35.75l-.17-.29-17.71-30.68,17.88-30.96h35.75l.17.29,17.71,30.68-17.88,30.96Zm-35.09-1.15h34.43l17.21-29.82-17.21-29.82h-34.43l-17.21,29.82,17.21,29.82Z"/>
    <path class="cls-1" d="m158.9,882.44h-35.75l-.17-.29-17.71-30.68.17-.29,17.71-30.68h35.75l.17.29,17.71,30.68-.17.29-17.71,30.68Zm-35.09-1.15h34.43l17.21-29.82-17.21-29.82h-34.43l-17.21,29.82,17.21,29.82Z"/>
    <path class="cls-1" d="m1059.99,92.32h-35.75l-17.88-30.96,17.88-30.96h35.75l17.88,30.96-17.88,30.96Zm-35.09-1.15h34.43l17.21-29.82-17.21-29.82h-34.43l-17.21,29.82,17.21,29.82Z"/>
    <path class="cls-1" d="m53.63,943.22H17.88l-.17-.29-17.71-30.68.17-.29,17.71-30.68h35.75l.17.29,17.71,30.67-.17.29-17.71,30.68Zm-35.09-1.15h34.43l17.21-29.82-17.21-29.81H18.54l-17.21,29.81,17.21,29.82Z"/>
    <path class="cls-1" d="m211.54,608.94h-35.75l-.17-.29-17.71-30.68.17-.29,17.71-30.68h35.75l.17.29,17.71,30.67-.17.29-17.71,30.68Zm-35.09-1.15h34.43l17.21-29.82-17.21-29.81h-34.43l-17.21,29.81,17.21,29.82Z"/>
    <path class="cls-1" d="m158.9,578.55h-35.75l-.17-.29-17.71-30.67.17-.29,17.71-30.68h35.75l.17.29,17.71,30.68-.17.29-17.71,30.68Zm-35.09-1.15h34.43l17.21-29.81-17.21-29.82h-34.43l-17.21,29.82,17.21,29.81Z"/>
    <polygon class="cls-1" points="1428.44 305.04 1392.69 305.04 1374.81 274.08 1392.69 243.12 1427.78 243.12 1445.16 213.01 1446.15 213.59 1428.44 244.26 1393.35 244.26 1376.14 274.08 1393.35 303.89 1427.78 303.89 1445.16 273.79 1446.15 274.37 1428.44 305.04"/>
    <path class="cls-1" d="m106.27,791.27h-35.75l-.17-.29-17.71-30.68.17-.29,17.71-30.68h35.75l.17.29,17.71,30.67-.17.29-17.71,30.68Zm-35.09-1.15h34.43l17.21-29.82-17.21-29.81h-34.43l-17.21,29.81,17.21,29.82Z"/>
    <path class="cls-1" d="m527.36,730.5h-35.75l-.17-.29-17.71-30.68.17-.29,17.71-30.68h35.75l.17.29,17.71,30.68-.17.29-17.71,30.68Zm-35.09-1.15h34.43l17.21-29.82-17.21-29.82h-34.43l-17.21,29.82,17.21,29.82Z"/>
    <path class="cls-1" d="m474.72,760.88h-35.75l-.17-.29-17.71-30.67.17-.29,17.71-30.68h35.75l.17.29,17.71,30.68-.17.29-17.71,30.68Zm-35.09-1.15h34.43l17.21-29.81-17.21-29.82h-34.43l-17.21,29.82,17.21,29.81Z"/>
    <path class="cls-1" d="m422.08,730.5h-35.75l-.17-.29-17.71-30.68.17-.29,17.71-30.68h35.75l.17.29,17.71,30.68-.17.29-17.71,30.68Zm-35.09-1.15h34.43l17.21-29.82-17.21-29.82h-34.43l-17.21,29.82,17.21,29.82Z"/>
    <polygon class="cls-1" points="474.72 700.11 438.97 700.11 438.8 699.82 421.09 669.14 421.25 668.86 438.8 638.47 439.79 639.04 422.41 669.14 439.63 698.96 474.06 698.96 491.27 669.14 473.89 639.04 474.88 638.47 492.6 669.14 492.43 669.43 474.72 700.11"/>
    <path class="cls-1" d="m264.18,760.88h-35.75l-.17-.29-17.71-30.67.17-.29,17.71-30.68h35.75l.17.29,17.71,30.68-.17.29-17.71,30.68Zm-35.09-1.15h34.43l17.21-29.81-17.21-29.82h-34.43l-17.21,29.82,17.21,29.81Z"/>
    <path class="cls-1" d="m790.53,1004h-35.75l-17.88-30.96.17-.29,17.71-30.68h35.75l17.88,30.96-.17.29-17.71,30.68Zm-35.09-1.15h34.43l17.21-29.82-17.21-29.82h-34.43l-17.21,29.82,17.21,29.82Z"/>
    <path class="cls-1" d="m948.44,973.61h-35.75l-17.88-30.96.17-.29,17.71-30.68h35.75l17.88,30.96-.17.29-17.71,30.68Zm-35.09-1.15h34.43l17.21-29.82-17.21-29.82h-34.43l-17.21,29.82,17.21,29.82Z"/>
    <path class="cls-1" d="m843.17,973.61h-35.75l-17.88-30.96.17-.29,17.71-30.68h35.75l17.88,30.96-.17.29-17.71,30.68Zm-35.09-1.15h34.43l17.21-29.82-17.21-29.82h-34.43l-17.21,29.82,17.21,29.82Z"/>
    <polygon class="cls-1" points="895.81 943.22 860.06 943.22 842.34 912.54 843.34 911.97 860.72 942.07 895.15 942.07 912.36 912.26 895.15 882.44 860.39 882.44 860.39 881.29 895.81 881.29 913.68 912.26 913.52 912.54 895.81 943.22"/>
    <path class="cls-1" d="m737.9,973.61h-35.75l-.17-.29-17.71-30.68.17-.29,17.71-30.68h35.75l17.88,30.96-.17.29-17.71,30.68Zm-35.09-1.15h34.43l17.21-29.82-17.21-29.82h-34.43l-17.21,29.82,17.21,29.82Z"/>
    <path class="cls-1" d="m211.54,791.27h-35.75l-.17-.29-17.71-30.68.17-.29,17.71-30.68h35.75l.17.29,17.71,30.67-.17.29-17.71,30.68Zm-35.09-1.15h34.43l17.21-29.82-17.21-29.81h-34.43l-17.21,29.81,17.21,29.82Z"/>
    <path class="cls-1" d="m158.9,760.88h-35.75l-.17-.29-17.71-30.67.17-.29,17.71-30.68h35.75l.17.29,17.71,30.68-.17.29-17.71,30.68Zm-35.09-1.15h34.43l17.21-29.81-17.21-29.82h-34.43l-17.21,29.82,17.21,29.81Z"/>
    <polygon class="cls-1" points="106.27 548.16 70.84 548.16 70.84 547.01 105.6 547.01 122.82 517.19 105.6 487.38 71.18 487.38 53.8 517.48 52.8 516.91 70.51 486.23 106.27 486.23 124.14 517.19 123.98 517.48 106.27 548.16"/>
    <polygon class="cls-1" points="316.81 669.72 281.06 669.72 280.89 669.43 263.35 639.04 264.34 638.47 281.72 668.57 316.15 668.57 333.36 638.75 315.98 608.65 316.98 608.08 334.69 638.75 334.52 639.04 316.81 669.72"/>
    <g>
      <path class="cls-1" d="m179.78,547.58c0,1.96-1.59,3.55-3.55,3.55s-3.55-1.59-3.55-3.55,1.59-3.55,3.55-3.55,3.55,1.59,3.55,3.55Z"/>
      <path class="cls-1" d="m179.67,669.14c0,1.96-1.59,3.55-3.55,3.55s-3.55-1.59-3.55-3.55,1.59-3.55,3.55-3.55,3.55,1.59,3.55,3.55Z"/>
      <path class="cls-1" d="m442.85,699.53c0,1.96-1.59,3.55-3.55,3.55s-3.55-1.59-3.55-3.55,1.59-3.55,3.55-3.55,3.55,1.59,3.55,3.55Z"/>
      <path class="cls-1" d="m442.85,638.75c0,1.96-1.59,3.55-3.55,3.55s-3.55-1.59-3.55-3.55,1.59-3.55,3.55-3.55,3.55,1.59,3.55,3.55Z"/>
      <path class="cls-1" d="m477.94,638.75c0,1.96-1.59,3.55-3.55,3.55s-3.55-1.59-3.55-3.55,1.59-3.55,3.55-3.55,3.55,1.59,3.55,3.55Z"/>
      <path class="cls-1" d="m442.85,821.09c0,1.96-1.59,3.55-3.55,3.55s-3.55-1.59-3.55-3.55,1.59-3.55,3.55-3.55,3.55,1.59,3.55,3.55Z"/>
      <path class="cls-1" d="m583.21,760.31c0,1.96-1.59,3.55-3.55,3.55s-3.55-1.59-3.55-3.55,1.59-3.55,3.55-3.55,3.55,1.59,3.55,3.55Z"/>
      <path class="cls-1" d="m337.58,942.65c0,1.96-1.59,3.55-3.55,3.55s-3.55-1.59-3.55-3.55,1.59-3.55,3.55-3.55,3.55,1.59,3.55,3.55Z"/>
      <path class="cls-1" d="m284.94,729.92c0,1.96-1.59,3.55-3.55,3.55s-3.55-1.59-3.55-3.55,1.59-3.55,3.55-3.55,3.55,1.59,3.55,3.55Z"/>
      <path class="cls-1" d="m320.03,608.36c0,1.96-1.59,3.55-3.55,3.55s-3.55-1.59-3.55-3.55,1.59-3.55,3.55-3.55,3.55,1.59,3.55,3.55Z"/>
      <path class="cls-1" d="m74.4,426.03c0,1.96-1.59,3.55-3.55,3.55s-3.55-1.59-3.55-3.55,1.59-3.55,3.55-3.55,3.55,1.59,3.55,3.55Z"/>
      <path class="cls-1" d="m56.85,517.19c0,1.96-1.59,3.55-3.55,3.55s-3.55-1.59-3.55-3.55,1.59-3.55,3.55-3.55,3.55,1.59,3.55,3.55Z"/>
      <path class="cls-1" d="m267.4,638.75c0,1.96-1.59,3.55-3.55,3.55s-3.55-1.59-3.55-3.55,1.59-3.55,3.55-3.55,3.55,1.59,3.55,3.55Z"/>
      <path class="cls-1" d="m74.4,669.14c0,1.96-1.59,3.55-3.55,3.55s-3.55-1.59-3.55-3.55,1.59-3.55,3.55-3.55,3.55,1.59,3.55,3.55Z"/>
      <circle class="cls-1" cx="421.75" cy="851.48" r="3.55"/>
      <path class="cls-1" d="m232.31,821.09c0,1.96-1.59,3.55-3.55,3.55s-3.55-1.59-3.55-3.55,1.59-3.55,3.55-3.55,3.55,1.59,3.55,3.55Z"/>
      <circle class="cls-1" cx="527.02" cy="912.26" r="3.55"/>
      <path class="cls-1" d="m793.76,942.65c0,1.96-1.59,3.55-3.55,3.55s-3.55-1.59-3.55-3.55,1.59-3.55,3.55-3.55,3.55,1.59,3.55,3.55Z"/>
      <path class="cls-1" d="m863.94,881.87c0,1.96-1.59,3.55-3.55,3.55s-3.55-1.59-3.55-3.55,1.59-3.55,3.55-3.55,3.55,1.59,3.55,3.55Z"/>
      <path class="cls-1" d="m214.76,851.48c0,1.96-1.59,3.55-3.55,3.55s-3.55-1.59-3.55-3.55,1.59-3.55,3.55-3.55,3.55,1.59,3.55,3.55Z"/>
      <path class="cls-1" d="m74.4,851.48c0,1.96-1.59,3.55-3.55,3.55s-3.55-1.59-3.55-3.55,1.59-3.55,3.55-3.55,3.55,1.59,3.55,3.55Z"/>
    </g>
    <path class="cls-1" d="m579.99,1004h-35.75l-.17-.29-17.71-30.68.17-.29,17.71-30.68h35.75l.17.29,17.71,30.68-.17.29-17.71,30.68Zm-35.09-1.15h34.43l17.21-29.82-17.21-29.82h-34.43l-17.21,29.82,17.21,29.82Z"/>
    <path class="cls-1" d="m632.63,973.61h-35.75l-.17-.29-17.71-30.68.17-.29,17.71-30.68h35.75l.17.29,17.71,30.68-.17.29-17.71,30.68Zm-35.09-1.15h34.43l17.21-29.82-17.21-29.82h-34.43l-17.21,29.82,17.21,29.82Z"/>
    <path class="cls-1" d="m685.26,943.22h-35.75l-.17-.29-17.71-30.68.17-.29,17.71-30.68h35.75l.17.29,17.71,30.67-.17.29-17.71,30.68Zm-35.09-1.15h34.43l17.21-29.82-17.21-29.81h-34.43l-17.21,29.81,17.21,29.82Z"/>
    <path class="cls-1" d="m53.63,517.77H17.88l-.17-.29L0,486.8l17.88-30.96h35.75l17.88,30.96-17.88,30.96Zm-35.09-1.15h34.43l17.21-29.82-17.21-29.82H18.54l-17.21,29.82,17.21,29.82Z"/>
    <path class="cls-1" d="m53.63,456.99H17.88L0,426.03l17.88-30.96h35.75l17.88,30.96-17.88,30.96Zm-35.09-1.15h34.43l17.21-29.82-17.21-29.82H18.54l-17.21,29.82,17.21,29.82Z"/>
    <path class="cls-1" d="m579.99,943.22h-35.75l-.17-.29-17.71-30.68.17-.29,17.71-30.68h35.75l.17.29,17.71,30.67-.17.29-17.71,30.68Zm-35.09-1.15h34.43l17.21-29.82-17.21-29.81h-34.43l-17.21,29.81,17.21,29.82Z"/>
    <polygon class="cls-1" points="527.52 912.54 526.53 911.97 543.91 881.87 526.69 852.05 492.26 852.05 475.05 881.87 492.43 911.97 491.44 912.54 473.72 881.87 473.89 881.58 491.6 850.9 527.36 850.9 527.52 851.19 545.23 881.87 545.07 882.15 527.52 912.54"/>
    <g>
      <path class="cls-1" d="m975.49,182.91c0,1.96-1.59,3.55-3.55,3.55s-3.55-1.59-3.55-3.55,1.59-3.55,3.55-3.55,3.55,1.59,3.55,3.55Z"/>
      <path class="cls-1" d="m1010.58,182.91c0,1.96-1.59,3.55-3.55,3.55s-3.55-1.59-3.55-3.55,1.59-3.55,3.55-3.55,3.55,1.59,3.55,3.55Z"/>
      <path class="cls-1" d="m1010.58,61.35c0,1.96-1.59,3.55-3.55,3.55s-3.55-1.59-3.55-3.55,1.59-3.55,3.55-3.55,3.55,1.59,3.55,3.55Z"/>
      <path class="cls-1" d="m817.8,91.74c0,1.96-1.59,3.55-3.55,3.55s-3.55-1.59-3.55-3.55,1.59-3.55,3.55-3.55,3.55,1.59,3.55,3.55Z"/>
      <path class="cls-1" d="m800.03,122.13c0,1.96-1.59,3.55-3.55,3.55s-3.55-1.59-3.55-3.55,1.59-3.55,3.55-3.55,3.55,1.59,3.55,3.55Z"/>
      <path class="cls-1" d="m1343.94,91.74c0,1.96-1.59,3.55-3.55,3.55s-3.55-1.59-3.55-3.55,1.59-3.55,3.55-3.55,3.55,1.59,3.55,3.55Z"/>
      <path class="cls-1" d="m1484.3,152.52c0,1.96-1.59,3.55-3.55,3.55s-3.55-1.59-3.55-3.55,1.59-3.55,3.55-3.55,3.55,1.59,3.55,3.55Z"/>
      <path class="cls-1" d="m1449.21,274.08c0,1.96-1.59,3.55-3.55,3.55s-3.55-1.59-3.55-3.55,1.59-3.55,3.55-3.55,3.55,1.59,3.55,3.55Z"/>
      <path class="cls-1" d="m1168.49,152.52c0,1.96-1.59,3.55-3.55,3.55s-3.55-1.59-3.55-3.55,1.59-3.55,3.55-3.55,3.55,1.59,3.55,3.55Z"/>
      <path class="cls-1" d="m1607.12,182.91c0,1.96-1.59,3.55-3.55,3.55s-3.55-1.59-3.55-3.55,1.59-3.55,3.55-3.55,3.55,1.59,3.55,3.55Z"/>
      <path class="cls-1" d="m1852.75,243.69c0,1.96-1.59,3.55-3.55,3.55s-3.55-1.59-3.55-3.55,1.59-3.55,3.55-3.55,3.55,1.59,3.55,3.55Z"/>
      <path class="cls-1" d="m1694.85,334.86c0,1.96-1.59,3.55-3.55,3.55s-3.55-1.59-3.55-3.55,1.59-3.55,3.55-3.55,3.55,1.59,3.55,3.55Z"/>
      <path class="cls-1" d="m1817.66,122.13c0,1.96-1.59,3.55-3.55,3.55s-3.55-1.59-3.55-3.55,1.59-3.55,3.55-3.55,3.55,1.59,3.55,3.55Z"/>
      <path class="cls-1" d="m1765.03,91.74c0,1.96-1.59,3.55-3.55,3.55s-3.55-1.59-3.55-3.55,1.59-3.55,3.55-3.55,3.55,1.59,3.55,3.55Z"/>
      <path class="cls-1" d="m1642.21,61.35c0,1.96-1.59,3.55-3.55,3.55s-3.55-1.59-3.55-3.55,1.59-3.55,3.55-3.55,3.55,1.59,3.55,3.55Z"/>
      <path class="cls-1" d="m1747.48,365.25c0,1.96-1.59,3.55-3.55,3.55s-3.55-1.59-3.55-3.55,1.59-3.55,3.55-3.55,3.55,1.59,3.55,3.55Z"/>
      <path class="cls-1" d="m1747.48,486.8c0,1.96-1.59,3.55-3.55,3.55s-3.55-1.59-3.55-3.55,1.59-3.55,3.55-3.55,3.55,1.59,3.55,3.55Z"/>
      <path class="cls-1" d="m1817.66,547.58c0,1.96-1.59,3.55-3.55,3.55s-3.55-1.59-3.55-3.55,1.59-3.55,3.55-3.55,3.55,1.59,3.55,3.55Z"/>
      <path class="cls-1" d="m1852.75,608.36c0,1.96-1.59,3.55-3.55,3.55s-3.55-1.59-3.55-3.55,1.59-3.55,3.55-3.55,3.55,1.59,3.55,3.55Z"/>
    </g>
  </g>
</svg>