<svg version="1.2" xmlns="http://www.w3.org/2000/svg" viewBox="0 0 24 24" width="24" height="24">
	<title>email1</title>
	<style>
		.s0 { fill: #ffffff;stroke: #37385c;stroke-linecap: round;stroke-linejoin: round;stroke-width: 1.6 } 
	</style>
	<path class="s0" d="m6.2 19h11.6c1.1 0 1.7 0 2.1-0.2q0.6-0.3 0.9-0.9c0.2-0.4 0.2-1 0.2-2.1v-7.6c0-1.1 0-1.7-0.2-2.1q-0.3-0.6-0.9-0.9c-0.4-0.2-1-0.2-2.1-0.2h-11.6c-1.1 0-1.7 0-2.1 0.2q-0.6 0.3-0.9 0.9c-0.2 0.4-0.2 1-0.2 2.1v7.6c0 1.1 0 1.7 0.2 2.1q0.3 0.6 0.9 0.9c0.4 0.2 1 0.2 2.1 0.2zm13.8-1l-5-6m-12-4l7.2 4.8c0.7 0.4 1 0.7 1.3 0.7q0.5 0.2 1 0c0.3 0 0.6-0.3 1.3-0.7l7.2-4.8m-17 10l5-6"/>
</svg>