<svg version="1.2" xmlns="http://www.w3.org/2000/svg" viewBox="0 0 20 20" width="20" height="20">
	<title>global1</title>
	<defs>
		<clipPath clipPathUnits="userSpaceOnUse" id="cp1">
			<path d="m0 0h20v20h-20z"/>
		</clipPath>
	</defs>
	<style>
		.s0 { fill: #ffffff;stroke: #37385c;stroke-linecap: round;stroke-linejoin: round;stroke-width: 1.2 } 
	</style>
	<g id="Clip-Path" clip-path="url(#cp1)">
		<g>
			<path class="s0" d="m10 19c5.1 0 9.2-4.1 9.2-9.2 0-5.1-4.1-9.2-9.2-9.2-5.1 0-9.2 4.1-9.2 9.2 0 5.1 4.1 9.2 9.2 9.2z"/>
			<path class="s0" d="m7.8 18.7c-1.3-1.8-2.1-5.1-2.1-8.9 0-3.8 0.8-7.1 2.1-8.9"/>
			<path class="s0" d="m0.8 9.8h18.4"/>
			<path class="s0" d="m2.2 14.7h15.6"/>
			<path class="s0" d="m2.2 4.9h15.6"/>
			<path class="s0" d="m12.2 0.9c1.3 1.8 2.1 5.1 2.1 8.9 0 3.8-0.8 7.1-2.1 8.9"/>
		</g>
	</g>
</svg>