<?xml version="1.0" encoding="UTF-8"?>
<svg id="Layer_1" data-name="Layer 1" xmlns="http://www.w3.org/2000/svg" xmlns:xlink="http://www.w3.org/1999/xlink" viewBox="0 0 560.37 188.82">
  <defs>
    <style>
      .cls-1, .cls-2 {
        fill: #fff;
      }

      .cls-2 {
        fill-rule: evenodd;
      }

      .cls-3 {
        clip-path: url(#clippath);
      }

      .cls-4 {
        fill: none;
      }
    </style>
    <clipPath id="clippath">
      <circle class="cls-4" cx="536.95" cy="23.42" r="20.99"/>
    </clipPath>
  </defs>
  <path class="cls-1" d="m405.28,188.82l2.8-6.73-5.37-13.37h3.45l2.77,8.25.62,2.01.62-2.01,2.91-8.25h3.33l-7.97,20.09h-3.17Zm-11.23-9.38c.7,0,1.33-.16,1.89-.48.58-.34,1.05-.81,1.38-1.41.36-.6.54-1.32.54-2.15v-.2c0-.85-.18-1.58-.54-2.2-.34-.64-.8-1.13-1.38-1.47-.57-.36-1.2-.54-1.89-.54-1.26,0-2.21.41-2.85,1.22-.62.81-.93,1.81-.93,3s.31,2.21.93,3.02c.64.81,1.59,1.22,2.85,1.22Zm-.51,2.54c-1.15,0-2.22-.27-3.22-.82-.98-.55-1.77-1.33-2.37-2.35-.6-1.02-.9-2.23-.9-3.65s.25-2.54.76-3.56c.53-1.02,1.26-1.81,2.2-2.37.96-.56,2.1-.85,3.42-.85.79,0,1.51.14,2.15.42.66.26,1.21.59,1.64.99.45.38.75.74.9,1.1l.06-2.18h2.91v12.97h-2.88l-.06-2.29c-.19.41-.51.82-.96,1.22-.43.4-.96.73-1.58.99-.62.24-1.31.37-2.06.37Zm-16.04-2.57c.7,0,1.33-.16,1.89-.48.58-.34,1.05-.81,1.38-1.41.36-.6.54-1.32.54-2.15v-.2c0-.85-.18-1.58-.54-2.2-.34-.64-.8-1.13-1.38-1.47-.57-.36-1.2-.54-1.89-.54-1.26,0-2.21.4-2.85,1.22-.62.81-.93,1.81-.93,3s.31,2.21.93,3.02c.64.81,1.59,1.22,2.85,1.22Zm-.51,2.57c-1.15,0-2.22-.27-3.22-.82-.98-.55-1.77-1.33-2.37-2.35-.6-1.02-.9-2.23-.9-3.65s.25-2.56.76-3.56c.53-1.02,1.26-1.81,2.2-2.37.96-.56,2.1-.85,3.42-.85.75,0,1.46.13,2.12.4.66.24,1.22.57,1.7.99.47.41.81.87,1.02,1.36l-.14-2.2v-8h3v20.77h-2.91l-.06-2.29c-.19.41-.51.82-.96,1.22-.43.4-.96.73-1.58.99-.62.24-1.31.37-2.06.37Zm-15.13-2.49c1.13,0,2-.41,2.6-1.24.62-.83.93-1.84.93-3.02,0-.81-.15-1.54-.45-2.18-.3-.66-.73-1.19-1.3-1.58-.55-.4-1.2-.59-1.95-.59s-1.37.2-1.89.59c-.53.4-.94.92-1.24,1.58-.28.64-.42,1.37-.42,2.18s.16,1.52.48,2.18c.32.64.75,1.15,1.3,1.53.57.38,1.22.57,1.95.57Zm-.08,2.49c-1.36,0-2.55-.3-3.59-.9-1.02-.6-1.81-1.42-2.37-2.46-.57-1.04-.85-2.19-.85-3.45s.27-2.37.82-3.39c.57-1.04,1.36-1.86,2.37-2.46,1.02-.62,2.22-.93,3.62-.93s2.6.31,3.62.93c1.02.6,1.8,1.42,2.35,2.46.55,1.02.82,2.15.82,3.39s-.28,2.41-.85,3.45c-.55,1.04-1.33,1.86-2.35,2.46s-2.21.9-3.59.9Zm-13.8-.28v-18h-5.31v-2.77h13.82v2.77h-5.37v18h-3.14Zm-18.33,4.72c.32-.66.62-1.37.9-2.12.3-.73.57-1.53.82-2.37-.57-.19-.93-.47-1.1-.85-.15-.38-.23-.74-.23-1.1,0-.58.19-1.06.57-1.44.4-.4.89-.59,1.47-.59s1.06.22,1.41.65c.38.41.57,1.06.57,1.92,0,.62-.14,1.29-.42,2.01-.28.73-.62,1.44-1.02,2.12-.4.68-.77,1.27-1.13,1.78h-1.84Zm-10.4-12.27h6.44c.02-1.22-.25-2.06-.82-2.51-.57-.45-1.3-.68-2.2-.68s-1.71.25-2.32.76c-.58.49-.95,1.3-1.1,2.43Zm3.7,7.83c-1.62,0-2.94-.31-3.96-.93-1.02-.64-1.76-1.48-2.23-2.51-.47-1.04-.71-2.14-.71-3.31,0-1.41.28-2.63.85-3.65.58-1.02,1.38-1.8,2.4-2.35,1.02-.56,2.17-.85,3.45-.85,2.05,0,3.55.57,4.49,1.72.94,1.13,1.41,2.66,1.41,4.58,0,.51-.03,1.04-.08,1.58h-9.33c.21,1.17.62,2.01,1.24,2.52.64.49,1.49.73,2.54.73s1.82-.09,2.4-.28c.58-.19,1.06-.38,1.44-.57l.93,2.18c-.38.24-.96.5-1.75.76-.79.24-1.83.37-3.11.37Zm-15.28-.28v-12.97h3.05v2.54c.3-.85.78-1.54,1.44-2.06.68-.55,1.46-.82,2.35-.82.6,0,1.02.06,1.24.17l-.42,3.08c-.17-.11-.54-.17-1.1-.17-.47,0-.98.1-1.53.31-.55.21-1.02.57-1.41,1.1-.38.51-.57,1.22-.57,2.15v6.67h-3.05Zm-10.2.28c-1.3,0-2.29-.27-2.97-.82s-1.14-1.27-1.38-2.18c-.23-.9-.34-1.9-.34-3v-7.26h3.05v6.5c0,1,.06,1.81.17,2.43.13.62.38,1.08.73,1.38.38.28.93.42,1.67.42.53,0,1.03-.14,1.5-.42.49-.3.89-.71,1.22-1.22.32-.53.48-1.11.48-1.75v-7.35h3.02v12.97h-2.49l-.34-1.89c-.47.72-1.06,1.26-1.75,1.64-.7.36-1.55.54-2.57.54Zm-12.48-.28v-10.48h-2.29v-2.49h2.29v-5.28l3.08-.68v5.96h3v2.49h-3v10.48h-3.08Zm-11.53.28c-1.3,0-2.29-.27-2.97-.82-.68-.55-1.14-1.27-1.38-2.18-.23-.9-.34-1.9-.34-3v-7.26h3.05v6.5c0,1,.06,1.81.17,2.43.13.62.38,1.08.73,1.38.38.28.93.42,1.67.42.53,0,1.03-.14,1.5-.42.49-.3.89-.71,1.22-1.22.32-.53.48-1.11.48-1.75v-7.35h3.02v12.97h-2.49l-.34-1.89c-.47.72-1.06,1.26-1.75,1.64-.7.36-1.55.54-2.57.54Zm-12.48-.28v-10.54h-2.09v-2.43h2.09v-2.8c0-1.68.41-2.99,1.22-3.93s2.02-1.41,3.62-1.41c.51,0,.96.08,1.36.23.41.15.69.25.82.31l-.59,2.88c-.09-.11-.28-.24-.57-.4-.26-.17-.57-.25-.93-.25-.26,0-.55.06-.85.17-.28.09-.53.32-.73.68-.21.34-.32.88-.34,1.61v2.91h3.05v2.43h-3.05v10.54h-3Zm-19.62-7.55h6.44c.02-1.22-.25-2.06-.82-2.51s-1.3-.68-2.2-.68-1.71.25-2.32.76c-.58.49-.95,1.3-1.1,2.43Zm3.7,7.83c-1.62,0-2.94-.31-3.96-.93-1.02-.64-1.76-1.48-2.23-2.51-.47-1.04-.71-2.14-.71-3.31,0-1.41.28-2.63.85-3.65.58-1.02,1.38-1.8,2.4-2.35,1.02-.56,2.17-.85,3.45-.85,2.05,0,3.55.57,4.49,1.72.94,1.13,1.41,2.66,1.41,4.58,0,.51-.03,1.04-.08,1.58h-9.33c.21,1.17.62,2.01,1.24,2.52.64.49,1.49.73,2.54.73s1.82-.09,2.4-.28c.58-.19,1.06-.38,1.44-.57l.93,2.18c-.38.24-.96.5-1.75.76-.79.24-1.83.37-3.11.37Zm-21.43-.28v-20.77h2.97v7.8l-.11,2.4c.34-.77.89-1.42,1.67-1.95.79-.53,1.73-.79,2.83-.79,1.39,0,2.44.29,3.14.88.7.56,1.16,1.38,1.38,2.43.24,1.06.37,2.31.37,3.76v6.25h-3.02v-6.27c0-1.51-.15-2.63-.45-3.36s-.99-1.1-2.06-1.1c-.53,0-1.08.17-1.67.51-.57.32-1.05.8-1.44,1.44-.4.62-.59,1.4-.59,2.35v6.44h-3Zm-8.13,0v-10.48h-2.29v-2.49h2.29v-5.28l3.08-.68v5.96h3v2.49h-3v10.48h-3.08Zm-19.54-7.55h6.44c.02-1.22-.25-2.06-.82-2.51-.57-.45-1.3-.68-2.2-.68s-1.71.25-2.32.76c-.58.49-.95,1.3-1.1,2.43Zm3.7,7.83c-1.62,0-2.94-.31-3.96-.93-1.02-.64-1.76-1.48-2.23-2.51s-.71-2.14-.71-3.31c0-1.41.28-2.63.85-3.65.58-1.02,1.38-1.8,2.4-2.35,1.02-.56,2.17-.85,3.45-.85,2.05,0,3.55.57,4.49,1.72.94,1.13,1.41,2.66,1.41,4.58,0,.51-.03,1.04-.08,1.58h-9.33c.21,1.17.62,2.01,1.24,2.52.64.49,1.49.73,2.54.73s1.82-.09,2.4-.28c.58-.19,1.06-.38,1.44-.57l.93,2.18c-.38.24-.96.5-1.75.76-.79.24-1.83.37-3.11.37Zm-16.43-2.57c.7,0,1.33-.16,1.89-.48.58-.34,1.05-.81,1.38-1.41.36-.6.54-1.32.54-2.15v-.2c0-.85-.18-1.58-.54-2.2-.34-.64-.8-1.13-1.38-1.47-.57-.36-1.2-.54-1.89-.54-1.26,0-2.21.4-2.85,1.22-.62.81-.93,1.81-.93,3s.31,2.21.93,3.02c.64.81,1.59,1.22,2.85,1.22Zm-.51,2.57c-1.15,0-2.22-.27-3.22-.82-.98-.55-1.77-1.33-2.37-2.35-.6-1.02-.9-2.23-.9-3.65s.25-2.56.76-3.56c.53-1.02,1.26-1.81,2.2-2.37.96-.56,2.1-.85,3.42-.85.75,0,1.46.13,2.12.4.66.24,1.22.57,1.7.99.47.41.81.87,1.02,1.36l-.14-2.2v-8h3v20.77h-2.91l-.06-2.29c-.19.41-.51.82-.96,1.22-.43.4-.96.73-1.58.99-.62.24-1.31.37-2.06.37Zm-15.13-2.49c1.13,0,2-.41,2.6-1.24.62-.83.93-1.84.93-3.02,0-.81-.15-1.54-.45-2.18-.3-.66-.73-1.19-1.3-1.58-.55-.4-1.2-.59-1.95-.59s-1.37.2-1.89.59c-.53.4-.94.92-1.24,1.58-.28.64-.42,1.37-.42,2.18s.16,1.52.48,2.18c.32.64.75,1.15,1.3,1.53.57.38,1.22.57,1.95.57Zm-.08,2.49c-1.36,0-2.55-.3-3.59-.9-1.02-.6-1.81-1.42-2.37-2.46-.57-1.04-.85-2.19-.85-3.45s.27-2.37.82-3.39c.57-1.04,1.36-1.86,2.37-2.46,1.02-.62,2.22-.93,3.62-.93s2.6.31,3.62.93c1.02.6,1.8,1.42,2.35,2.46.55,1.02.82,2.15.82,3.39s-.28,2.41-.85,3.45c-.55,1.04-1.33,1.86-2.35,2.46s-2.21.9-3.59.9Zm-12.93-.08c-1.66,0-3.14-.28-4.44-.85-1.28-.56-2.37-1.34-3.28-2.32-.89-1-1.56-2.13-2.03-3.39-.45-1.28-.68-2.64-.68-4.07,0-1.56.25-3,.76-4.3.53-1.3,1.26-2.42,2.2-3.36.94-.96,2.06-1.71,3.36-2.23s2.73-.79,4.3-.79c1.02,0,1.92.1,2.71.31.79.21,1.44.44,1.95.71.51.24.83.44.96.59l-1.38,2.83c-.51-.45-1.14-.82-1.89-1.1-.73-.28-1.6-.42-2.6-.42-1.3,0-2.48.32-3.53.96-1.04.64-1.87,1.55-2.49,2.71-.6,1.17-.9,2.55-.9,4.15,0,1.41.26,2.7.79,3.87.53,1.15,1.3,2.07,2.32,2.77,1.04.7,2.29,1.05,3.76,1.05.81,0,1.6-.1,2.37-.31.79-.23,1.6-.59,2.43-1.1l.93,2.68c-.24.23-.66.47-1.24.73-.58.24-1.26.45-2.03.62-.75.17-1.54.25-2.35.25Z"/>
  <rect class="cls-1" x="71.06" y="171.2" width="50.87" height="3.23"/>
  <rect class="cls-1" x="436.02" y="171.2" width="50.87" height="3.23"/>
  <path class="cls-2" d="m515.03,118.68l-13.39-10.54c-4.82,3.75-10.36,5.71-16.25,6.07-.89,0-1.96,0-2.86-.18-.54,0-2.5-.18-3.57-.36-13.75-2.68-23.57-14.64-23.57-28.4,0-16.07,13.04-29.11,28.93-29.11,4.64,0,9.29,1.25,11.25,2.5l4.29,2.32-16.97,21.79,12.86,10.36,26.25-33.75c-3.93-5.71-9.29-10.36-15.36-13.93l-.54-.18c-6.61-3.57-14.11-5.54-21.79-5.54-25,0-45.36,20.36-45.36,45.54,0,3.75.36,7.68,1.43,11.25l.18,1.43c5.71,19.29,23.57,32.86,43.75,32.86,7.14,0,14.29-1.79,20.54-5l1.79-1.07c3.93-2.14,6.43-4.11,8.39-6.07ZM90.9,85.29v45.54h-16.43v-45.54c0-16.07-13.04-29.11-29.11-29.11s-28.93,13.04-28.93,29.11,13.04,28.93,28.93,28.93c2.86,0,5.71-.36,8.39-1.25v16.97c-2.86.54-5.54.89-8.39.89C20.36,130.83,0,110.29,0,85.29s20.36-45.54,45.36-45.54,45.54,20.36,45.54,45.54Zm246.84,8.16h16.88c3.55,11.97,14.68,20.78,27.75,20.78,16.07,0,29.11-13.04,29.11-28.93V2.42h16.43v82.86c0,25-20.36,45.54-45.54,45.54-22.22,0-40.77-16.22-44.63-37.38Zm-126.79,0h16.87c-3.85,21.16-22.43,37.38-44.81,37.38s-40.77-16.22-44.63-37.38h16.88c1.69,5.68,5.12,10.73,9.89,14.53,5.18,4.11,11.43,6.25,17.86,6.25,7.86,0,15-3.04,20.54-8.57,3.52-3.41,6.03-7.62,7.39-12.2Zm17.35-13.02c-2.42-22.89-21.75-40.67-45.28-40.67s-42.68,17.79-45.1,40.67h16.57c.99-5.93,3.8-11.3,8.17-15.67,5.36-5.54,12.68-8.57,20.36-8.57,3.39,0,6.79.71,10.18,1.96.36.09.71.22,1.07.36h0c.36.13.71.27,1.07.36,1.96,1.07,3.93,2.14,5.54,3.57,5.83,4.52,9.63,10.93,10.84,17.99h16.59Zm82.32,13.02h16.87c-3.85,21.16-22.43,37.38-44.81,37.38s-40.77-16.22-44.63-37.38h16.88c1.69,5.68,5.12,10.73,9.89,14.53,5.18,4.11,11.43,6.25,17.86,6.25,7.86,0,15-3.04,20.54-8.57,3.52-3.41,6.03-7.62,7.39-12.2Zm17.35-13.02c-2.42-22.89-21.75-40.67-45.28-40.67s-42.68,17.79-45.1,40.67h16.57c.99-5.93,3.8-11.3,8.17-15.67,5.36-5.54,12.68-8.57,20.36-8.57,3.39,0,6.79.71,10.18,1.96.36.09.71.22,1.07.36h0c.36.13.71.27,1.07.36,1.96,1.07,3.93,2.14,5.54,3.57,5.83,4.52,9.63,10.93,10.84,17.99h16.59Zm9.29,0c2.42-22.89,21.74-40.67,45.1-40.67,2.86,0,5.54.18,8.39.71v16.97c-2.68-.71-5.54-1.25-8.39-1.25-14.25,0-26.21,10.49-28.53,24.24h-16.58Z"/>
  <polygon class="cls-1" points="142.58 38.56 125.08 38.56 96.24 84.14 125.08 130.65 142.58 130.65 114.65 84.14 142.58 38.56"/>
  <g class="cls-3">
    <path class="cls-1" d="m536.95,4.84c10.26,0,18.57,8.31,18.57,18.57h4.84c0-12.93-10.48-23.42-23.42-23.42v4.84Zm-18.57,18.57c0-10.26,8.31-18.57,18.57-18.57V0c-12.93,0-23.42,10.48-23.42,23.42h4.84Zm18.57,18.57c-10.26,0-18.57-8.31-18.57-18.57h-4.84c0,12.93,10.48,23.42,23.42,23.42v-4.84Zm18.57-18.57c0,10.26-8.31,18.57-18.57,18.57v4.84c12.93,0,23.42-10.48,23.42-23.42h-4.84Z"/>
  </g>
  <path class="cls-1" d="m537.32,16.76h-3.78v5.56h3.67c.98,0,1.81-.08,2.48-.25.67-.17,1.18-.46,1.53-.87.36-.41.54-.98.54-1.7,0-.56-.14-1.05-.43-1.48-.29-.43-.68-.75-1.19-.97-.48-.2-1.42-.3-2.83-.3Zm-2.35,8.5h-1.44v6.5c0,.86-.19,1.49-.57,1.89-.38.4-.87.61-1.48.61-.65,0-1.16-.21-1.52-.63-.36-.42-.54-1.04-.54-1.86v-15.57c0-.88.2-1.52.59-1.92.4-.4,1.03-.59,1.92-.59h6.67c.92,0,1.71.04,2.36.12.65.07,1.24.23,1.77.47.63.27,1.2.65,1.68,1.15.49.5.86,1.08,1.1,1.74.26.65.39,1.35.39,2.08,0,1.51-.43,2.71-1.28,3.62-.85.9-2.13,1.54-3.86,1.92.73.39,1.42.96,2.08,1.71.66.75,1.25,1.56,1.77,2.42.52.85.93,1.61,1.21,2.3.29.68.44,1.15.44,1.41s-.09.53-.26.8c-.17.26-.4.46-.69.61-.29.16-.63.23-1.02.23-.46,0-.85-.11-1.16-.33-.31-.21-.58-.48-.81-.81-.22-.33-.52-.82-.91-1.46l-1.64-2.73c-.59-1-1.12-1.77-1.59-2.29-.46-.52-.93-.88-1.41-1.08-.48-.19-1.08-.29-1.81-.29Z"/>
</svg>