<?xml version="1.0" encoding="UTF-8"?>
<svg id="Layer_1" data-name="Layer 1" xmlns="http://www.w3.org/2000/svg" xmlns:xlink="http://www.w3.org/1999/xlink" viewBox="0 0 369.56 124.52">
  <defs>
    <style>
      .cls-1 {
        fill: #fff;
      }

      .cls-2, .cls-3 {
        fill: #474a73;
      }

      .cls-3 {
        fill-rule: evenodd;
      }

      .cls-4 {
        clip-path: url(#clippath);
      }
    </style>
    <clipPath id="clippath">
      <circle class="cls-2" cx="354.11" cy="15.44" r="13.85"/>
    </clipPath>
  </defs>
  <path class="cls-2" d="m267.28,124.52l1.85-4.44-3.54-8.82h2.27l1.83,5.44.41,1.32.41-1.32,1.92-5.44h2.2l-5.26,13.25h-2.09Zm-7.41-6.19c.46,0,.88-.11,1.25-.32.39-.22.69-.53.91-.93.24-.4.35-.87.35-1.42v-.13c0-.56-.12-1.04-.35-1.45-.22-.42-.53-.75-.91-.97-.37-.24-.79-.35-1.25-.35-.83,0-1.46.27-1.88.8-.41.53-.62,1.19-.62,1.98s.21,1.46.62,1.99c.42.53,1.05.8,1.88.8Zm-.34,1.68c-.76,0-1.47-.18-2.12-.54-.65-.36-1.17-.88-1.57-1.55-.4-.67-.6-1.47-.6-2.4s.17-1.68.5-2.35c.35-.67.83-1.19,1.45-1.57.63-.37,1.39-.56,2.26-.56.52,0,.99.09,1.42.28.43.17.8.39,1.08.65.3.25.5.49.6.73l.04-1.43h1.92v8.55h-1.9l-.04-1.51c-.12.27-.34.54-.63.8-.29.26-.63.48-1.04.65-.41.16-.86.24-1.36.24Zm-10.58-1.7c.46,0,.88-.11,1.25-.32.39-.22.69-.53.91-.93.24-.4.35-.87.35-1.42v-.13c0-.56-.12-1.04-.35-1.45-.22-.42-.53-.75-.91-.97-.37-.24-.79-.35-1.25-.35-.83,0-1.46.27-1.88.8-.41.53-.62,1.19-.62,1.98s.21,1.46.62,1.99c.42.53,1.05.8,1.88.8Zm-.34,1.7c-.76,0-1.47-.18-2.12-.54-.65-.36-1.17-.88-1.57-1.55-.4-.67-.6-1.47-.6-2.4s.17-1.69.5-2.35c.35-.67.83-1.19,1.45-1.57.63-.37,1.39-.56,2.26-.56.5,0,.96.09,1.4.26.43.16.81.38,1.12.65.31.27.53.57.67.89l-.09-1.45v-5.27h1.98v13.7h-1.92l-.04-1.51c-.12.27-.34.54-.63.8-.29.26-.63.48-1.04.65-.41.16-.86.24-1.36.24Zm-9.98-1.64c.75,0,1.32-.27,1.71-.82.41-.55.62-1.21.62-1.99,0-.53-.1-1.01-.3-1.43-.2-.43-.48-.78-.86-1.04-.36-.26-.79-.39-1.29-.39s-.9.13-1.25.39c-.35.26-.62.61-.82,1.04-.19.42-.28.9-.28,1.43s.11,1,.32,1.44c.21.42.5.76.86,1.01.37.25.8.37,1.29.37Zm-.06,1.64c-.89,0-1.68-.2-2.37-.6-.67-.4-1.19-.94-1.57-1.62-.37-.68-.56-1.44-.56-2.27s.18-1.57.54-2.24c.37-.68.89-1.22,1.57-1.62.67-.41,1.47-.61,2.39-.61s1.71.2,2.39.61c.67.4,1.19.94,1.55,1.62.36.67.54,1.42.54,2.24s-.19,1.59-.56,2.27c-.36.68-.88,1.22-1.55,1.62s-1.46.6-2.37.6Zm-9.1-.19v-11.87h-3.5v-1.83h9.11v1.83h-3.54v11.87h-2.07Zm-12.09,3.11c.21-.43.41-.9.6-1.4.2-.48.38-1.01.54-1.57-.37-.12-.62-.31-.73-.56-.1-.25-.15-.49-.15-.73,0-.39.12-.7.37-.95.26-.26.58-.39.97-.39s.7.14.93.43c.25.27.37.7.37,1.27,0,.41-.09.85-.28,1.32-.19.48-.41.95-.67,1.4-.26.45-.51.84-.75,1.17h-1.21Zm-6.86-8.09h4.25c.01-.81-.17-1.36-.54-1.66-.37-.3-.86-.45-1.45-.45s-1.13.17-1.53.5c-.39.32-.63.86-.73,1.6Zm2.44,5.16c-1.07,0-1.94-.21-2.61-.62-.67-.42-1.16-.98-1.47-1.66-.31-.68-.47-1.41-.47-2.18,0-.93.19-1.73.56-2.4.39-.67.91-1.19,1.58-1.55.67-.37,1.43-.56,2.27-.56,1.35,0,2.34.38,2.96,1.14.62.75.93,1.75.93,3.02,0,.34-.02.68-.06,1.04h-6.15c.14.77.41,1.32.82,1.66.42.32.98.48,1.68.48s1.2-.06,1.58-.19c.39-.12.7-.25.95-.37l.62,1.44c-.25.16-.63.33-1.16.5-.52.16-1.21.24-2.05.24Zm-10.08-.19v-8.55h2.01v1.68c.2-.56.52-1.01.95-1.36.45-.36.96-.54,1.55-.54.4,0,.67.04.82.11l-.28,2.03c-.11-.07-.35-.11-.73-.11-.31,0-.65.07-1.01.2-.36.14-.67.38-.93.73-.25.34-.37.81-.37,1.42v4.4h-2.01Zm-6.73.19c-.86,0-1.51-.18-1.96-.54s-.75-.84-.91-1.43c-.15-.6-.22-1.26-.22-1.98v-4.79h2.01v4.29c0,.66.04,1.19.11,1.6.09.41.25.71.48.91.25.19.61.28,1.1.28.35,0,.68-.09.99-.28.32-.2.59-.47.8-.8.21-.35.32-.73.32-1.16v-4.85h1.99v8.55h-1.64l-.22-1.25c-.31.47-.7.83-1.16,1.08-.46.24-1.03.35-1.7.35Zm-8.23-.19v-6.91h-1.51v-1.64h1.51v-3.49l2.03-.45v3.93h1.98v1.64h-1.98v6.91h-2.03Zm-7.6.19c-.86,0-1.51-.18-1.96-.54-.45-.36-.75-.84-.91-1.43-.15-.6-.22-1.26-.22-1.98v-4.79h2.01v4.29c0,.66.04,1.19.11,1.6.09.41.25.71.48.91.25.19.62.28,1.1.28.35,0,.68-.09.99-.28.32-.2.59-.47.8-.8.21-.35.32-.73.32-1.16v-4.85h1.99v8.55h-1.64l-.22-1.25c-.31.47-.7.83-1.16,1.08-.46.24-1.03.35-1.7.35Zm-8.23-.19v-6.95h-1.38v-1.6h1.38v-1.85c0-1.11.27-1.97.8-2.59s1.33-.93,2.39-.93c.34,0,.63.05.89.15.27.1.45.17.54.21l-.39,1.9c-.06-.07-.19-.16-.37-.26-.17-.11-.38-.17-.62-.17-.17,0-.36.04-.56.11-.19.06-.35.21-.48.45-.14.22-.21.58-.22,1.06v1.92h2.01v1.6h-2.01v6.95h-1.98Zm-12.94-4.98h4.25c.01-.81-.17-1.36-.54-1.66s-.86-.45-1.45-.45-1.13.17-1.53.5c-.39.32-.63.86-.73,1.6Zm2.44,5.16c-1.07,0-1.94-.21-2.61-.62-.67-.42-1.16-.98-1.47-1.66-.31-.68-.47-1.41-.47-2.18,0-.93.19-1.73.56-2.4.39-.67.91-1.19,1.58-1.55.67-.37,1.43-.56,2.27-.56,1.35,0,2.34.38,2.96,1.14.62.75.93,1.75.93,3.02,0,.34-.02.68-.06,1.04h-6.15c.14.77.41,1.32.82,1.66.42.32.98.48,1.68.48s1.2-.06,1.58-.19c.39-.12.7-.25.95-.37l.62,1.44c-.25.16-.63.33-1.16.5-.52.16-1.21.24-2.05.24Zm-14.13-.19v-13.7h1.96v5.14l-.07,1.58c.22-.51.59-.94,1.1-1.29.52-.35,1.14-.52,1.86-.52.92,0,1.61.19,2.07.58.46.37.76.91.91,1.6.16.7.24,1.52.24,2.48v4.12h-1.99v-4.14c0-.99-.1-1.73-.3-2.22s-.65-.73-1.36-.73c-.35,0-.71.11-1.1.34-.37.21-.69.53-.95.95-.26.41-.39.93-.39,1.55v4.25h-1.98Zm-5.36,0v-6.91h-1.51v-1.64h1.51v-3.49l2.03-.45v3.93h1.98v1.64h-1.98v6.91h-2.03Zm-12.88-4.98h4.25c.01-.81-.17-1.36-.54-1.66-.37-.3-.86-.45-1.45-.45s-1.13.17-1.53.5c-.39.32-.63.86-.73,1.6Zm2.44,5.16c-1.07,0-1.94-.21-2.61-.62-.67-.42-1.16-.98-1.47-1.66s-.47-1.41-.47-2.18c0-.93.19-1.73.56-2.4.39-.67.91-1.19,1.58-1.55.67-.37,1.43-.56,2.27-.56,1.35,0,2.34.38,2.96,1.14.62.75.93,1.75.93,3.02,0,.34-.02.68-.06,1.04h-6.15c.14.77.41,1.32.82,1.66.42.32.98.48,1.68.48s1.2-.06,1.58-.19c.39-.12.7-.25.95-.37l.62,1.44c-.25.16-.63.33-1.16.5-.52.16-1.21.24-2.05.24Zm-10.84-1.7c.46,0,.88-.11,1.25-.32.39-.22.69-.53.91-.93.24-.4.35-.87.35-1.42v-.13c0-.56-.12-1.04-.35-1.45-.22-.42-.53-.75-.91-.97-.37-.24-.79-.35-1.25-.35-.83,0-1.46.27-1.88.8-.41.53-.62,1.19-.62,1.98s.21,1.46.62,1.99c.42.53,1.05.8,1.88.8Zm-.34,1.7c-.76,0-1.47-.18-2.12-.54-.65-.36-1.17-.88-1.57-1.55-.4-.67-.6-1.47-.6-2.4s.17-1.69.5-2.35c.35-.67.83-1.19,1.45-1.57.63-.37,1.39-.56,2.26-.56.5,0,.96.09,1.4.26.43.16.81.38,1.12.65.31.27.53.57.67.89l-.09-1.45v-5.27h1.98v13.7h-1.92l-.04-1.51c-.12.27-.34.54-.63.8-.29.26-.63.48-1.04.65-.41.16-.86.24-1.36.24Zm-9.98-1.64c.75,0,1.32-.27,1.71-.82.41-.55.61-1.21.61-1.99,0-.53-.1-1.01-.3-1.43-.2-.43-.48-.78-.86-1.04-.36-.26-.79-.39-1.29-.39s-.9.13-1.25.39c-.35.26-.62.61-.82,1.04-.19.42-.28.9-.28,1.43s.11,1,.32,1.44c.21.42.5.76.86,1.01.37.25.8.37,1.29.37Zm-.06,1.64c-.89,0-1.68-.2-2.37-.6-.67-.4-1.19-.94-1.57-1.62-.37-.68-.56-1.44-.56-2.27s.18-1.57.54-2.24c.37-.68.89-1.22,1.57-1.62.67-.41,1.47-.61,2.39-.61s1.71.2,2.39.61c.67.4,1.19.94,1.55,1.62.36.67.54,1.42.54,2.24s-.19,1.59-.56,2.27c-.36.68-.88,1.22-1.55,1.62s-1.46.6-2.37.6Zm-8.53-.06c-1.09,0-2.07-.19-2.93-.56-.84-.37-1.57-.88-2.16-1.53-.58-.66-1.03-1.4-1.34-2.24-.3-.84-.45-1.74-.45-2.68,0-1.03.17-1.98.5-2.83.35-.86.83-1.6,1.45-2.22.62-.63,1.36-1.12,2.22-1.47s1.8-.52,2.83-.52c.67,0,1.27.07,1.79.21.52.14.95.29,1.29.47.34.16.55.29.63.39l-.91,1.86c-.34-.3-.75-.54-1.25-.73-.48-.19-1.06-.28-1.71-.28-.86,0-1.63.21-2.33.63-.68.42-1.23,1.02-1.64,1.79-.4.77-.6,1.68-.6,2.74,0,.93.17,1.78.52,2.55.35.76.86,1.37,1.53,1.83.68.46,1.51.69,2.48.69.53,0,1.06-.07,1.57-.2.52-.15,1.06-.39,1.6-.73l.61,1.77c-.16.15-.43.31-.82.48-.39.16-.83.3-1.34.41-.5.11-1.01.17-1.55.17Z"/>
  <rect class="cls-2" x="46.86" y="112.9" width="33.55" height="2.13"/>
  <rect class="cls-2" x="287.55" y="112.9" width="33.55" height="2.13"/>
  <path class="cls-3" d="m339.65,78.27l-8.83-6.95c-3.18,2.47-6.83,3.77-10.72,4-.59,0-1.3,0-1.88-.12-.35,0-1.65-.12-2.36-.24-9.07-1.77-15.55-9.66-15.55-18.73,0-10.6,8.6-19.2,19.08-19.2,3.06,0,6.12.82,7.42,1.65l2.83,1.53-11.19,14.37,8.48,6.83,17.31-22.26c-2.59-3.77-6.12-6.83-10.13-9.19l-.35-.12c-4.36-2.36-9.3-3.65-14.37-3.65-16.49,0-29.91,13.43-29.91,30.03,0,2.47.24,5.06.94,7.42l.12.94c3.77,12.72,15.55,21.67,28.85,21.67,4.71,0,9.42-1.18,13.54-3.3l1.18-.71c2.59-1.41,4.24-2.71,5.54-4ZM59.95,56.25v30.03h-10.84v-30.03c0-10.6-8.6-19.2-19.2-19.2s-19.08,8.6-19.08,19.2,8.6,19.08,19.08,19.08c1.88,0,3.77-.24,5.54-.82v11.19c-1.88.35-3.65.59-5.54.59-16.49,0-29.91-13.54-29.91-30.03s13.43-30.03,29.91-30.03,30.03,13.43,30.03,30.03Zm162.79,5.38h11.13c2.34,7.89,9.68,13.7,18.3,13.7,10.6,0,19.2-8.6,19.2-19.08V1.6h10.84v54.65c0,16.49-13.43,30.03-30.03,30.03-14.65,0-26.89-10.7-29.43-24.65Zm-83.62,0h11.13c-2.54,13.96-14.79,24.65-29.55,24.65s-26.89-10.7-29.43-24.65h11.13c1.11,3.74,3.38,7.08,6.52,9.58,3.42,2.71,7.54,4.12,11.78,4.12,5.18,0,9.89-2,13.54-5.65,2.32-2.25,3.98-5.02,4.88-8.05Zm11.44-8.59c-1.6-15.09-14.34-26.82-29.86-26.82s-28.15,11.73-29.75,26.82h10.93c.65-3.91,2.51-7.45,5.39-10.33,3.53-3.65,8.36-5.65,13.43-5.65,2.24,0,4.48.47,6.71,1.3.24.06.47.15.71.24h0c.24.09.47.18.71.24,1.3.71,2.59,1.41,3.65,2.36,3.84,2.98,6.35,7.21,7.15,11.87h10.94Zm54.29,8.59h11.13c-2.54,13.96-14.79,24.65-29.55,24.65s-26.89-10.7-29.43-24.65h11.13c1.11,3.74,3.38,7.08,6.52,9.58,3.42,2.71,7.54,4.12,11.78,4.12,5.18,0,9.89-2,13.54-5.65,2.32-2.25,3.98-5.02,4.88-8.05Zm11.44-8.59c-1.6-15.09-14.34-26.82-29.86-26.82s-28.15,11.73-29.75,26.82h10.93c.65-3.91,2.51-7.45,5.39-10.33,3.53-3.65,8.36-5.65,13.43-5.65,2.24,0,4.48.47,6.71,1.3.24.06.47.15.71.24h0c.24.09.47.18.71.24,1.3.71,2.59,1.41,3.65,2.36,3.84,2.98,6.35,7.21,7.15,11.87h10.94Zm6.12,0c1.6-15.09,14.33-26.82,29.75-26.82,1.88,0,3.65.12,5.54.47v11.19c-1.77-.47-3.65-.82-5.54-.82-9.4,0-17.29,6.91-18.81,15.99h-10.93Z"/>
  <polygon class="cls-2" points="94.03 25.43 82.49 25.43 63.47 55.49 82.49 86.16 94.03 86.16 75.61 55.49 94.03 25.43"/>
  <g>
    <circle class="cls-2" cx="354.11" cy="15.44" r="13.85"/>
    <g class="cls-4">
      <path class="cls-2" d="m354.11,3.2c6.76,0,12.25,5.48,12.25,12.25h3.2c0-8.53-6.91-15.44-15.44-15.44v3.2Zm-12.25,12.25c0-6.76,5.48-12.25,12.25-12.25V0c-8.53,0-15.44,6.91-15.44,15.44h3.2Zm12.25,12.25c-6.76,0-12.25-5.48-12.25-12.25h-3.2c0,8.53,6.91,15.44,15.44,15.44v-3.2Zm12.25-12.25c0,6.76-5.48,12.25-12.25,12.25v3.2c8.53,0,15.44-6.91,15.44-15.44h-3.2Z"/>
    </g>
  </g>
  <path class="cls-1" d="m354.36,11.05h-2.49v3.67h2.42c.65,0,1.2-.05,1.64-.16.44-.12.78-.31,1.01-.57.24-.27.35-.65.35-1.12,0-.37-.09-.69-.28-.97-.19-.28-.45-.5-.78-.64-.32-.13-.94-.2-1.87-.2Zm-1.55,5.61h-.95v4.29c0,.56-.12.98-.37,1.25-.25.27-.57.4-.97.4-.43,0-.76-.14-1-.42-.24-.28-.35-.69-.35-1.23v-10.27c0-.58.13-1,.39-1.26.26-.26.68-.39,1.26-.39h4.4c.61,0,1.13.03,1.56.08.43.05.82.15,1.16.31.42.18.79.43,1.11.76.32.33.56.71.73,1.15.17.43.25.89.25,1.37,0,1-.28,1.79-.85,2.38-.56.59-1.41,1.02-2.55,1.26.48.25.94.63,1.37,1.13.44.5.83,1.03,1.16,1.59.35.56.61,1.06.8,1.52.19.45.29.76.29.93s-.06.35-.17.53c-.11.17-.26.3-.46.4-.19.1-.42.15-.67.15-.3,0-.56-.07-.76-.22-.21-.14-.39-.32-.54-.54-.15-.22-.35-.54-.6-.96l-1.08-1.8c-.39-.66-.74-1.17-1.05-1.51-.3-.35-.61-.58-.93-.71-.32-.13-.71-.19-1.19-.19Z"/>
</svg>