<svg version="1.2" xmlns="http://www.w3.org/2000/svg" viewBox="0 0 24 24" width="24" height="24">
	<title>phn1-white</title>
	<style>
		.s0 { fill: #ffffff;stroke: #37385c;stroke-linecap: round;stroke-linejoin: round;stroke-width: 1.6 } 
	</style>
	<path class="s0" d="m17.5 22c-8.6 0-15.5-6.9-15.5-15.5q0-0.6 0-1.1c0.1-0.5 0.1-0.7 0.2-0.9 0.1-0.2 0.3-0.3 0.4-0.4 0.2-0.1 0.5-0.1 1-0.1h2.8c0.4 0 0.6 0 0.8 0.1q0.2 0.1 0.4 0.2c0.1 0.2 0.1 0.4 0.3 0.8l1.1 3.2c0.2 0.4 0.3 0.6 0.3 0.8q0 0.3-0.2 0.5c-0.1 0.2-0.3 0.3-0.7 0.6l-1.4 0.8c1.2 2.6 3.4 4.8 6 6l0.8-1.4c0.3-0.4 0.4-0.6 0.6-0.7q0.2-0.2 0.5-0.2c0.2 0 0.4 0.1 0.8 0.3l3.2 1.1c0.4 0.2 0.6 0.2 0.8 0.3q0.1 0.2 0.2 0.4c0.1 0.2 0.1 0.4 0.1 0.8v2.8c0 0.5 0 0.8-0.1 1-0.1 0.1-0.2 0.3-0.4 0.4-0.2 0.1-0.4 0.1-0.9 0.2q-0.5 0-1.1 0zm-4.4-19c2 0.2 3.9 1.1 5.3 2.6 1.5 1.4 2.4 3.3 2.6 5.3m-7.9-3.9c0.9 0.2 1.8 0.7 2.5 1.4 0.7 0.7 1.2 1.6 1.4 2.5"/>
</svg>