<svg width="40" height="40" viewBox="0 0 40 40" fill="none" xmlns="http://www.w3.org/2000/svg">
<path d="M31.666 34.1673C32.3752 33.849 32.9817 33.436 33.514 32.8998C35.8327 30.5638 35.8327 26.8042 35.8327 19.2848C35.8327 11.7656 35.8327 8.00588 33.514 5.66993C31.1952 3.33398 27.4632 3.33398 19.9993 3.33398C12.5354 3.33398 8.8035 3.33398 6.48475 5.66993C4.16602 8.00588 4.16602 11.7656 4.16602 19.2848C4.16602 26.8042 4.16602 30.5638 6.48475 32.8998C7.01695 33.436 7.62357 33.849 8.33268 34.1673" stroke="white" stroke-width="2.4" stroke-linecap="round"/>
<path d="M4.16602 14.166H35.8327" stroke="white" stroke-width="2.4" stroke-linejoin="round"/>
<path d="M11.666 9.16602H11.681" stroke="white" stroke-width="2.4" stroke-linecap="round" stroke-linejoin="round"/>
<path d="M18.332 9.16602H18.347" stroke="white" stroke-width="2.4" stroke-linecap="round" stroke-linejoin="round"/>
<path d="M15.8327 27.291C15.8327 27.9813 16.3923 28.541 17.0827 28.541C17.773 28.541 18.3327 27.9813 18.3327 27.291H15.8327ZM21.666 27.291C21.666 27.9813 22.2257 28.541 22.916 28.541C23.6063 28.541 24.166 27.9813 24.166 27.291H21.666ZM18.541 28.541H21.4577V26.041H18.541V28.541ZM21.4577 35.416H18.541V37.916H21.4577V35.416ZM18.541 35.416C17.8432 35.416 17.3869 35.4152 17.0364 35.3897C16.6987 35.3648 16.5557 35.322 16.4736 35.2857L15.4595 37.5707C15.9133 37.7722 16.3781 37.8482 16.854 37.883C17.3168 37.9168 17.8798 37.916 18.541 37.916V35.416ZM12.916 31.9785C12.916 32.6905 12.9154 33.283 12.9463 33.7679C12.9778 34.2622 13.0456 34.731 13.2221 35.1877L15.5539 34.2862C15.5084 34.1683 15.4653 33.9862 15.4412 33.609C15.4166 33.222 15.416 32.7225 15.416 31.9785H12.916ZM16.4736 35.2857C16.0779 35.11 15.7372 34.7603 15.5539 34.2862L13.2221 35.1877C13.6309 36.245 14.4258 37.112 15.4595 37.5707L16.4736 35.2857ZM24.5827 31.9785C24.5827 32.7225 24.582 33.222 24.5575 33.609C24.5335 33.9862 24.4904 34.1683 24.4447 34.2862L26.7765 35.1877C26.953 34.731 27.0209 34.2622 27.0524 33.7679C27.0834 33.283 27.0827 32.6905 27.0827 31.9785H24.5827ZM21.4577 37.916C22.1188 37.916 22.6819 37.9168 23.1447 37.883C23.6207 37.8482 24.0854 37.7722 24.5392 37.5707L23.5252 35.2857C23.443 35.322 23.3 35.3648 22.9623 35.3897C22.6118 35.4152 22.1555 35.416 21.4577 35.416V37.916ZM24.4447 34.2862C24.2615 34.7603 23.9209 35.11 23.5252 35.2857L24.5392 37.5707C25.5729 37.112 26.3678 36.245 26.7765 35.1877L24.4447 34.2862ZM21.4577 28.541C22.1555 28.541 22.6118 28.5419 22.9623 28.5674C23.3 28.5922 23.443 28.635 23.5252 28.6713L24.5392 26.3863C24.0854 26.1848 23.6207 26.1088 23.1447 26.074C22.6819 26.0402 22.1188 26.041 21.4577 26.041V28.541ZM27.0827 31.9785C27.0827 31.2665 27.0834 30.674 27.0524 30.1892C27.0209 29.6948 26.953 29.226 26.7765 28.7693L24.4447 29.6708C24.4904 29.7887 24.5335 29.9708 24.5575 30.348C24.582 30.735 24.5827 31.2345 24.5827 31.9785H27.0827ZM23.5252 28.6713C23.9209 28.847 24.2615 29.1967 24.4447 29.6708L26.7765 28.7693C26.3678 27.7122 25.5729 26.845 24.5392 26.3863L23.5252 28.6713ZM18.541 26.041C17.8798 26.041 17.3168 26.0402 16.854 26.074C16.3781 26.1088 15.9133 26.1848 15.4595 26.3863L16.4736 28.6713C16.5557 28.635 16.6987 28.5922 17.0364 28.5674C17.3869 28.5419 17.8432 28.541 18.541 28.541V26.041ZM15.416 31.9785C15.416 31.2345 15.4166 30.735 15.4412 30.348C15.4653 29.9708 15.5084 29.7887 15.5539 29.6708L13.2221 28.7693C13.0456 29.226 12.9778 29.6948 12.9463 30.1892C12.9154 30.674 12.916 31.2665 12.916 31.9785H15.416ZM15.4595 26.3863C14.4258 26.845 13.6309 27.7122 13.2221 28.7693L15.5539 29.6708C15.7372 29.1967 16.0779 28.847 16.4736 28.6713L15.4595 26.3863ZM18.3327 27.291V24.4785H15.8327V27.291H18.3327ZM21.666 24.4785V27.291H24.166V24.4785H21.666ZM19.9994 22.916C20.963 22.916 21.666 23.658 21.666 24.4785H24.166C24.166 22.1923 22.2573 20.416 19.9994 20.416V22.916ZM18.3327 24.4785C18.3327 23.658 19.0357 22.916 19.9994 22.916V20.416C17.7414 20.416 15.8327 22.1923 15.8327 24.4785H18.3327Z" fill="white"/>
</svg>
