<svg width="18" height="18" viewBox="0 0 18 18" fill="none" xmlns="http://www.w3.org/2000/svg">
<path d="M16.5062 11.1445C16.7573 10.8643 16.9102 10.4945 16.9102 10.0898C16.9102 9.21763 16.2003 8.50778 15.3281 8.50778H12.2576C12.5617 7.58496 12.6914 6.36047 12.6914 5.83558V5.30859C12.6914 4.14562 11.745 3.19922 10.582 3.19922H10.0547C9.81278 3.19922 9.60186 3.36375 9.54319 3.59859L9.25593 4.74785C8.85338 6.3573 7.57547 8.13304 6.25289 8.45574C6.02121 7.86937 5.44922 7.45313 4.78125 7.45313H1.61719C1.32609 7.45313 1.08984 7.68938 1.08984 7.98047V17.4727C1.08984 17.7638 1.32609 18 1.61719 18H4.78125C5.4102 18 5.95442 17.6312 6.2093 17.0983L8.02125 17.7023C8.61366 17.8998 9.23097 18 9.85574 18H14.2734C15.1457 18 15.8555 17.2902 15.8555 16.418C15.8555 16.2123 15.8161 16.0154 15.7444 15.8351C16.4152 15.6519 16.9102 15.037 16.9102 14.3086C16.9102 13.9039 16.7573 13.5341 16.5062 13.2539C16.7573 12.9737 16.9102 12.6038 16.9102 12.1993C16.9102 11.7946 16.7573 11.4248 16.5062 11.1445ZM5.30859 16.418C5.30859 16.7087 5.07199 16.9453 4.78125 16.9453H2.14453V8.50778H4.78125C5.07199 8.50778 5.30859 8.7444 5.30859 9.03518V16.418ZM14.2734 11.6719H15.3281C15.6188 11.6719 15.8555 11.9085 15.8555 12.1993C15.8555 12.49 15.6188 12.7266 15.3281 12.7266H14.2734C13.9823 12.7266 13.7461 12.9628 13.7461 13.2539C13.7461 13.545 13.9823 13.7813 14.2734 13.7813H15.3281C15.6188 13.7813 15.8555 14.0178 15.8555 14.3086C15.8555 14.5993 15.6188 14.8359 15.3281 14.8359H14.2734C13.9823 14.8359 13.7461 15.0722 13.7461 15.3632C13.7461 15.6544 13.9823 15.8906 14.2734 15.8906C14.5642 15.8906 14.8007 16.1273 14.8007 16.418C14.8007 16.7087 14.5642 16.9453 14.2734 16.9453H9.85574C9.34454 16.9453 8.83931 16.8634 8.35454 16.7017L6.36328 16.0379V9.51259C7.19051 9.35542 8.00016 8.83161 8.73106 7.97414C9.44477 7.13672 10.0234 6.02648 10.279 5.00378L10.4663 4.2539H10.582C11.1635 4.2539 11.6368 4.72711 11.6368 5.30859V5.83558C11.6368 6.54363 11.4153 7.90172 11.1319 8.50778H10.0547C9.76361 8.50778 9.52732 8.74407 9.52732 9.03518C9.52732 9.32621 9.76361 9.5625 10.0547 9.5625H15.3281C15.6188 9.5625 15.8555 9.79911 15.8555 10.0898C15.8555 10.3806 15.6188 10.6172 15.3281 10.6172H14.2734C13.9823 10.6172 13.7461 10.8534 13.7461 11.1445C13.7461 11.4356 13.9823 11.6719 14.2734 11.6719Z" fill="#462CC1"/>
<path d="M3.72656 15.8907C4.0178 15.8907 4.2539 15.6545 4.2539 15.3633C4.2539 15.0721 4.0178 14.8359 3.72656 14.8359C3.43531 14.8359 3.19922 15.0721 3.19922 15.3633C3.19922 15.6545 3.43531 15.8907 3.72656 15.8907Z" fill="#462CC1"/>
<path d="M11.1093 0C10.8182 0 10.582 0.236109 10.582 0.527344V1.61719C10.582 1.90843 10.8182 2.14453 11.1093 2.14453C11.4006 2.14453 11.6367 1.90843 11.6367 1.61719V0.527344C11.6367 0.236109 11.4006 0 11.1093 0Z" fill="#462CC1"/>
<path d="M8.87259 2.326L8.12679 1.58024C7.92088 1.3743 7.58697 1.3743 7.38102 1.58024C7.17508 1.78618 7.17508 2.12006 7.38102 2.326L8.12679 3.07178C8.33267 3.27769 8.66665 3.27772 8.87259 3.07178C9.07853 2.86583 9.07853 2.53195 8.87259 2.326Z" fill="#462CC1"/>
<path d="M14.8374 1.58024C14.6315 1.3743 14.2976 1.3743 14.0916 1.58024L13.3459 2.32597C13.1399 2.53192 13.1399 2.8658 13.3459 3.07174C13.5517 3.27769 13.8856 3.27772 14.0916 3.07178L14.8374 2.326C15.0433 2.12006 15.0433 1.78618 14.8374 1.58024Z" fill="#462CC1"/>
</svg>
