<!DOCTYPE svg PUBLIC "-//W3C//DTD SVG 1.1//EN" "http://www.w3.org/Graphics/SVG/1.1/DTD/svg11.dtd">
<!-- Uploaded to: SVG Repo, www.svgrepo.com, Transformed by: SVG Repo Mixer Tools -->
<svg fill="#ffffff" height="800px" width="800px" version="1.1" id="Layer_1" xmlns="http://www.w3.org/2000/svg" xmlns:xlink="http://www.w3.org/1999/xlink" viewBox="0 0 512 512" xml:space="preserve" stroke="#ffffff">
<g id="SVGRepo_bgCarrier" stroke-width="0"/>
<g id="SVGRepo_tracerCarrier" stroke-linecap="round" stroke-linejoin="round"/>
<g id="SVGRepo_iconCarrier"> <g> <g> <g> <path d="M155.003,266.06c-5.787-1.881-11.995,1.285-13.876,7.068l-2.041,6.284c-1.474,4.537,0.141,9.508,4,12.312l5.345,3.883 c1.954,1.42,4.218,2.103,6.463,2.103c3.405,0,6.763-1.575,8.917-4.54c3.309-4.554,2.621-10.793-1.402-14.531 C163.466,273.252,160.358,267.8,155.003,266.06z"/> <path d="M176.078,201.193c-5.78-1.881-11.995,1.286-13.875,7.07l-4.863,14.969c-1.878,5.784,1.286,11.996,7.07,13.875 c1.13,0.367,2.276,0.542,3.404,0.542c4.641,0,8.958-2.96,10.47-7.612l4.863-14.969 C185.026,209.284,181.862,203.072,176.078,201.193z"/> <path d="M198.871,166.415c5.451-0.658,9.676-5.301,9.676-10.93c0-6.081-4.931-11.011-11.011-11.011h-6.606 c-4.77,0-8.998,3.072-10.472,7.607l-2.041,6.284c-1.88,5.782,1.286,11.994,7.069,13.874c1.131,0.368,2.277,0.543,3.406,0.543 C193.104,172.782,197.049,170.345,198.871,166.415z"/> <path d="M265.743,144.473h-15.74c-6.08,0-11.011,4.93-11.011,11.011c0,6.081,4.93,11.011,11.011,11.011h15.74 c6.08,0,11.011-4.93,11.011-11.011C276.754,149.403,271.823,144.473,265.743,144.473z"/> <path d="M337.329,158.363l-2.041-6.284c-1.474-4.536-5.702-7.607-10.472-7.607h-6.606c-6.08,0-11.011,4.929-11.011,11.011 c0,5.631,4.225,10.273,9.676,10.931c1.822,3.93,5.767,6.366,9.98,6.366c1.126,0,2.275-0.175,3.406-0.543 C336.043,170.358,339.209,164.146,337.329,158.363z"/> <path d="M358.405,223.232l-4.863-14.969c-1.878-5.783-8.09-8.952-13.875-7.07c-5.784,1.88-8.948,8.091-7.07,13.875l4.863,14.969 c1.512,4.653,5.828,7.612,10.47,7.612c1.126,0,2.274-0.175,3.405-0.542C357.119,235.227,360.284,229.016,358.405,223.232z"/> <path d="M374.618,273.129c-1.881-5.783-8.092-8.952-13.876-7.068c-5.353,1.74-8.463,7.191-7.406,12.579 c-4.022,3.738-4.71,9.977-1.402,14.531c2.154,2.965,5.512,4.54,8.916,4.54c2.244,0,4.509-0.684,6.463-2.103l5.345-3.883 c3.859-2.803,5.474-7.775,4-12.311L374.618,273.129z"/> <path d="M311.924,308.63l-12.733,9.251c-4.92,3.574-6.01,10.46-2.436,15.38c2.156,2.966,5.512,4.54,8.916,4.54 c2.244,0,4.51-0.684,6.463-2.104l12.733-9.251c4.92-3.574,6.01-10.46,2.436-15.38 C323.729,306.145,316.842,305.056,311.924,308.63z"/> <path d="M257.873,348.001c-4.797-2.671-10.944-1.399-14.252,3.156c-3.575,4.92-2.484,11.806,2.436,15.38l5.345,3.883 c1.93,1.402,4.201,2.103,6.472,2.103c2.272,0,4.542-0.701,6.472-2.103l5.345-3.883c4.92-3.574,6.011-10.46,2.436-15.38 C268.818,346.601,262.67,345.328,257.873,348.001z"/> <path d="M216.555,317.881l-12.733-9.251c-4.918-3.573-11.806-2.485-15.38,2.436c-3.574,4.92-2.484,11.806,2.436,15.38 l12.733,9.251c1.954,1.42,4.218,2.104,6.463,2.104c3.405,0,6.763-1.575,8.917-4.54 C222.565,328.341,221.475,321.455,216.555,317.881z"/> <path d="M504.858,236.787c-5.695-2.141-12.042,0.745-14.179,6.438l-14.674,39.077l-44.424-136.721 c15.398-9.002,25.772-25.703,25.772-44.79c0-28.594-23.263-51.857-51.858-51.857c-4.819,0-9.48,0.675-13.911,1.91L335.68,9.352 c-4.884-3.625-11.78-2.604-15.404,2.28c-3.624,4.883-2.603,11.779,2.279,15.404l32.13,23.846H214.452 c-5.04-23.354-25.845-40.911-50.685-40.911c-26.802,0-48.921,20.439-51.587,46.55L53.002,88.542 c-5.348,2.894-7.338,9.576-4.444,14.924s9.576,7.336,14.924,4.444l39.945-21.614L57.135,228.768 c-1.735-0.176-3.496-0.266-5.276-0.266C23.263,228.501,0,251.765,0,280.359c0,22.558,14.483,41.788,34.635,48.905l22.86,64.852 c1.595,4.524,5.846,7.353,10.385,7.353c1.214,0,2.451-0.203,3.66-0.63c5.735-2.022,8.746-8.31,6.724-14.045l-12.549-35.598 l110.67,80.407c-2.96,6.518-4.622,13.746-4.622,21.359c0,28.594,23.263,51.857,51.858,51.857c14.858,0,28.267-6.292,37.73-16.338 l68.887,4.312c0.235,0.014,0.467,0.022,0.699,0.022c5.766,0,10.613-4.489,10.979-10.324c0.38-6.069-4.233-11.297-10.301-11.677 l-42.563-2.665l119.736-86.993c9.156,8.118,21.188,13.061,34.358,13.061c28.594,0,51.857-23.263,51.857-51.857 c0-10.005-2.856-19.354-7.785-27.286l24.074-64.112C513.432,245.273,510.551,238.924,504.858,236.787z M405.496,70.954 c16.452,0,29.837,13.385,29.837,29.836s-13.385,29.836-29.837,29.836c-16.452,0-29.837-13.385-29.837-29.836 S389.043,70.954,405.496,70.954z M163.767,31.992c16.451,0,29.837,13.385,29.837,29.836c0,16.452-13.385,29.837-29.837,29.837 c-16.452,0-29.836-13.385-29.836-29.837C133.932,45.377,147.316,31.992,163.767,31.992z M51.858,310.194 c-16.452,0-29.837-13.385-29.837-29.836c0-16.451,13.385-29.836,29.837-29.836c16.451,0,29.836,13.385,29.836,29.836 C81.694,296.81,68.31,310.194,51.858,310.194z M223.624,482.798c-16.451,0-29.837-13.385-29.837-29.836 s13.385-29.836,29.837-29.836c16.452,0,29.836,13.385,29.836,29.836C253.46,469.413,240.075,482.798,223.624,482.798z M391.291,342.363c0,7.487,1.608,14.604,4.477,21.038l-114.602,83.263l12.669-34.031c2.122-5.699-0.778-12.039-6.479-14.16 c-5.696-2.122-12.039,0.779-14.16,6.478l-6.915,18.575c-9.368-13.531-24.991-22.419-42.658-22.419 c-13.043,0-24.968,4.851-34.09,12.83L75.591,331.15l41.471-1.87c6.076-0.274,10.777-5.421,10.504-11.495 c-0.274-6.076-5.422-10.779-11.495-10.504l-20.5,0.924c5.148-8.051,8.146-17.603,8.146-27.847 c0-19.04-10.321-35.706-25.656-44.724l41.982-129.213l6.314,30.81c1.069,5.211,5.655,8.803,10.775,8.802 c0.732,0,1.478-0.074,2.223-0.227c5.957-1.221,9.796-7.04,8.576-12.997l-4.798-23.416c6.328,2.756,13.304,4.294,20.635,4.294 c24.793,0,45.567-17.494,50.655-40.783H354.23l-31.674,23.508c-4.883,3.625-5.903,10.521-2.279,15.404 c2.16,2.911,5.483,4.449,8.85,4.449c2.28,0,4.582-0.706,6.554-2.169l17.958-13.328c0,0.008,0,0.015,0,0.023 c0,28.594,23.263,51.857,51.858,51.857c1.736,0,3.452-0.089,5.144-0.257l43.129,132.738l-29.779-22.782 c-4.83-3.694-11.74-2.775-15.436,2.055c-3.694,4.829-2.776,11.741,2.055,15.436l17.039,13.036 C406.602,299.48,391.291,319.166,391.291,342.363z M443.149,372.198c-16.451,0-29.837-13.385-29.837-29.836 c0-16.452,13.385-29.837,29.837-29.837c16.452,0,29.836,13.385,29.836,29.837C472.984,358.813,459.6,372.198,443.149,372.198z"/> </g> </g> </g> </g>
</svg>