<!DOCTYPE svg PUBLIC "-//W3C//DTD SVG 1.1//EN" "http://www.w3.org/Graphics/SVG/1.1/DTD/svg11.dtd">
<!-- Uploaded to: SVG Repo, www.svgrepo.com, Transformed by: SVG Repo Mixer Tools -->
<svg fill="#ffffff" version="1.1" id="Layer_1" xmlns="http://www.w3.org/2000/svg" xmlns:xlink="http://www.w3.org/1999/xlink" viewBox="0 0 496 496" xml:space="preserve" width="800px" height="800px" stroke="#ffffff">
<g id="SVGRepo_bgCarrier" stroke-width="0"/>
<g id="SVGRepo_tracerCarrier" stroke-linecap="round" stroke-linejoin="round"/>
<g id="SVGRepo_iconCarrier"> <g> <g> <g> <path d="M304,416H16V64h288h8h8V24c0-13.232-10.768-24-24-24H24C10.768,0,0,10.768,0,24v448c0,13.232,10.768,24,24,24h272 c13.232,0,24-10.768,24-24v-56h-8H304z M16,24c0-4.416,3.584-8,8-8h272c4.416,0,8,3.584,8,8v24H16V24z M304,472 c0,4.416-3.584,8-8,8H24c-4.416,0-8-3.584-8-8v-40h288V472z"/> <rect x="128" y="448" width="64" height="16"/> <path d="M280,160c0-44.112-35.888-80-80-80s-80,35.888-80,80s35.888,80,80,80S280,204.112,280,160z M136,160 c0-35.288,28.712-64,64-64c35.288,0,64,28.712,64,64c0,35.288-28.712,64-64,64C164.712,224,136,195.288,136,160z"/> <rect x="264" y="80" width="200" height="16"/> <rect x="480" y="80" width="16" height="16"/> <rect x="264" y="224" width="184" height="16"/> <rect x="464" y="224" width="16" height="16"/> <rect x="296" y="128" width="152" height="16"/> <rect x="464" y="128" width="16" height="16"/> <rect x="312" y="176" width="152" height="16"/> <rect x="480" y="176" width="16" height="16"/> <path d="M208,216v-16c13.232,0,24-10.768,24-24s-10.768-24-24-24h-16c-4.416,0-8-3.584-8-8s3.584-8,8-8h16c4.416,0,8,3.584,8,8 h16c0-13.232-10.768-24-24-24v-16h-16v16c-13.232,0-24,10.768-24,24s10.768,24,24,24h16c4.416,0,8,3.584,8,8s-3.584,8-8,8h-16 c-4.416,0-8-3.584-8-8h-16c0,13.232,10.768,24,24,24v16H208z"/> <path d="M384,320h95.384l-12.904,32.248c-0.824-0.08-1.632-0.248-2.48-0.248c-10.416,0-19.216,6.712-22.528,16H406.52 c-2.96-8.312-10.328-14.456-19.32-15.672L365.768,288H336v16h18.232l17.216,51.64C364.608,359.872,360,367.384,360,376 c0,13.232,10.768,24,24,24c10.416,0,19.216-6.712,22.528-16h34.952c3.312,9.288,12.112,16,22.528,16c13.232,0,24-10.768,24-24 c0-6.6-2.68-12.584-7.008-16.928l15-37.536V304H384V320z M384,384c-4.416,0-8-3.584-8-8c0-2.792,1.52-5.128,3.688-6.56L384,368 c4.416,0,8,3.584,8,8C392,380.416,388.416,384,384,384z M464,384c-4.416,0-8-3.584-8-8c0-4.416,3.584-8,8-8c4.416,0,8,3.584,8,8 C472,380.416,468.416,384,464,384z"/> <rect x="176" y="384" width="168" height="16"/> <rect x="144" y="384" width="16" height="16"/> <rect x="192" y="336" width="152" height="16"/> <rect x="176" y="288" width="144" height="16"/> <rect x="144" y="288" width="16" height="16"/> <rect x="160" y="336" width="16" height="16"/> </g> </g> </g> </g>
</svg>